<svg xmlns="http://www.w3.org/2000/svg" width="18.464" height="15.301" viewBox="0 0 18.464 15.301">
  <path id="패스_13" data-name="패스 13" d="M177.6,266.721c-.255,2.687-1.363,9.211-1.925,12.222-.238,1.275-.708,1.7-1.162,1.742-.987.091-1.737-.653-2.693-1.279-1.5-.98-2.342-1.591-3.794-2.549-1.679-1.107-.591-1.714.365-2.707.251-.261,4.6-4.217,4.685-4.576a.348.348,0,0,0-.079-.3.39.39,0,0,0-.351-.034q-.225.051-7.171,4.739a3.233,3.233,0,0,1-1.844.681,12.1,12.1,0,0,1-2.642-.626c-1.064-.346-1.911-.53-1.837-1.116q.057-.459,1.264-.939,7.433-3.24,9.914-4.271c4.722-1.964,5.7-2.3,6.342-2.316C177.473,265.38,177.666,266.041,177.6,266.721Z" transform="translate(-159.147 -265.392)" fill="#fff"/>
</svg>
