<svg width="34" height="29" viewBox="0 0 34 29" fill="none" xmlns="http://www.w3.org/2000/svg">
<g id="Group 1457533812">
<path id="Vector" d="M18.7708 19.8192H15.2292C14.2531 19.8192 13.4583 19.0244 13.4583 18.0483V9.9025H9.56249C8.63174 9.9025 8.14866 8.78192 8.79324 8.10617L16.2307 0.3145C16.6317 -0.104833 17.3683 -0.104833 17.7692 0.3145L25.2067 8.10617C25.8513 8.78192 25.3682 9.9025 24.4375 9.9025H20.5417V18.0483C20.5417 19.0244 19.7469 19.8192 18.7708 19.8192Z" fill="#556372"/>
<path id="Vector_2" d="M29.75 28.3192H4.25C1.90683 28.3192 0 26.4123 0 24.0692V16.9858C0 14.6427 1.90683 12.7358 4.25 12.7358H6.375C7.157 12.7358 7.79167 13.3705 7.79167 14.1525C7.79167 14.9345 7.157 15.5692 6.375 15.5692H4.25C3.46942 15.5692 2.83333 16.2053 2.83333 16.9858V24.0692C2.83333 24.8498 3.46942 25.4858 4.25 25.4858H29.75C30.5306 25.4858 31.1667 24.8498 31.1667 24.0692V16.9858C31.1667 16.2053 30.5306 15.5692 29.75 15.5692H27.625C26.843 15.5692 26.2083 14.9345 26.2083 14.1525C26.2083 13.3705 26.843 12.7358 27.625 12.7358H29.75C32.0932 12.7358 34 14.6427 34 16.9858V24.0692C34 26.4123 32.0932 28.3192 29.75 28.3192Z" fill="#556372"/>
</g>
</svg>
