<svg xmlns="http://www.w3.org/2000/svg" width="58.933" height="50.526" viewBox="0 0 58.933 50.526">
  <g id="그룹_10" data-name="그룹 10" transform="translate(-788 -639)">
    <path id="패스_14" data-name="패스 14" d="M33.211,34.528a4.118,4.118,0,0,1,4.21,4.019V59.983a4.215,4.215,0,0,1-8.421,0V38.547A4.119,4.119,0,0,1,33.211,34.528Z" transform="translate(759 615)" fill="#8de2ec" fill-rule="evenodd"/>
    <path id="패스_15" data-name="패스 15" d="M66.874,34.528a4.119,4.119,0,0,1,4.211,4.019V59.983a4.215,4.215,0,0,1-8.421,0V38.547A4.118,4.118,0,0,1,66.874,34.528Z" transform="translate(759 615)" fill="#8de2ec" fill-rule="evenodd"/>
    <path id="패스_16" data-name="패스 16" d="M50.054,24a4.1,4.1,0,0,1,4.211,3.989V70.537a4.217,4.217,0,0,1-8.421,0V27.989A4.1,4.1,0,0,1,50.054,24Z" transform="translate(759 615)" fill="#25c6da" fill-rule="evenodd"/>
    <path id="패스_17" data-name="패스 17" d="M83.722,32.426c2.325,0,4.211,1.265,4.211,2.825V65.39c0,1.561-1.886,2.826-4.211,2.826s-4.21-1.265-4.21-2.826V35.251C79.512,33.691,81.4,32.426,83.722,32.426Z" transform="translate(759 615)" fill="#25c6da" fill-rule="evenodd"/>
  </g>
</svg>
