<svg width="14" height="8" viewBox="0 0 14 8" fill="none" xmlns="http://www.w3.org/2000/svg">
<g id="Group 1457533771">
<g id="Direction Arrow">
<path id="Vector" d="M12.9057 3.20174L9.95453 0.28815C9.76576 0.101909 9.51074 -0.00173156 9.24557 2.18925e-05C8.98039 0.00177535 8.72677 0.108779 8.54047 0.297501C8.35418 0.486222 8.25047 0.741208 8.25215 1.00638C8.25383 1.27156 8.36076 1.52521 8.54943 1.71156L9.85447 2.99995H1.00159C0.87013 2.99974 0.739922 3.02546 0.618413 3.07563C0.496904 3.1258 0.386478 3.19943 0.293452 3.29231C0.200426 3.38519 0.126625 3.49551 0.0762715 3.61694C0.0259181 3.73837 0 3.86854 0 3.99999C0 4.13145 0.0259181 4.26162 0.0762715 4.38305C0.126625 4.50448 0.200426 4.6148 0.293452 4.70768C0.386478 4.80056 0.496904 4.87419 0.618413 4.92436C0.739922 4.97453 0.87013 5.00025 1.00159 5.00004H9.85128L8.54858 6.28928C8.36013 6.47585 8.25349 6.72963 8.25213 6.99482C8.25076 7.26 8.35478 7.51486 8.54131 7.70336C8.72783 7.89186 8.98159 7.99856 9.24677 7.99999C9.51195 8.00142 9.76684 7.89746 9.95538 7.71098L12.9063 4.79056C13.0155 4.68901 13.1025 4.56604 13.162 4.42933C13.2216 4.29262 13.2522 4.14512 13.2522 3.99602C13.2521 3.84692 13.2213 3.69944 13.1617 3.56278C13.1021 3.42612 13.015 3.30322 12.9057 3.20174Z" fill="#556372"/>
</g>
</g>
</svg>
