<svg width="16" height="16" viewBox="0 0 16 16" fill="none" xmlns="http://www.w3.org/2000/svg">
<g id="Group 1457533717">
<path id="Vector" d="M8 0C3.58869 0 0 3.58869 0 8C0 12.4113 3.58869 16 8 16C12.4113 16 16 12.4113 16 8C16 3.58866 12.4113 0 8 0ZM8 14.4C4.47109 14.4 1.6 11.5289 1.6 8C1.6 4.47109 4.47109 1.6 8 1.6C11.5289 1.6 14.4 4.47109 14.4 8C14.4 11.5289 11.5289 14.4 8 14.4ZM8.8 4.8C8.8 5.24178 8.44184 5.6 8 5.6C7.55816 5.6 7.2 5.24181 7.2 4.8C7.2 4.35816 7.55816 4 8 4C8.44184 4 8.8 4.35816 8.8 4.8ZM8.8 7.2V11.2C8.8 11.6418 8.44181 12 8 12C7.55822 12 7.2 11.6418 7.2 11.2V7.2C7.2 6.75822 7.55822 6.4 8 6.4C8.44181 6.4 8.8 6.75819 8.8 7.2Z" fill="#556372"/>
</g>
</svg>
