<svg xmlns="http://www.w3.org/2000/svg" width="11.214" height="9.684" viewBox="0 0 11.214 9.684">
  <g id="그룹_6" data-name="그룹 6" transform="translate(-921 -904)">
    <path id="패스_16" data-name="패스 16" d="M1.456.474a.789.789,0,0,1,.807.77V5.352a.789.789,0,0,1-.807.77.789.789,0,0,1-.807-.77V1.244A.789.789,0,0,1,1.456.474Z" transform="translate(920.352 905.526)" fill="#8d96a1" fill-rule="evenodd"/>
    <path id="패스_18" data-name="패스 18" d="M1.456.474a.789.789,0,0,1,.807.77V5.352a.789.789,0,0,1-.807.77.789.789,0,0,1-.807-.77V1.244A.789.789,0,0,1,1.456.474Z" transform="translate(926.752 905.526)" fill="#8d96a1" fill-rule="evenodd"/>
    <path id="패스_17" data-name="패스 17" d="M1.685.456a.787.787,0,0,1,.807.764V9.376a.787.787,0,0,1-.807.765.787.787,0,0,1-.807-.765V1.221A.787.787,0,0,1,1.685.456Z" transform="translate(923.322 903.544)" fill="#556372" fill-rule="evenodd"/>
    <path id="패스_19" data-name="패스 19" d="M1.141.07c.446,0,.807.242.807.542V6.388c0,.3-.361.542-.807.542S.334,6.688.334,6.388V.612C.334.313.7.07,1.141.07Z" transform="translate(930.266 904.93)" fill="#556372" fill-rule="evenodd"/>
  </g>
</svg>
