<svg width="67" height="67" viewBox="0 0 67 67" fill="none" xmlns="http://www.w3.org/2000/svg">
<g id="Group 1457533784">
<g id="g2517">
<g id="g2519">
<g id="Clip path group">
<mask id="mask0_823_5932" style="mask-type:luminance" maskUnits="userSpaceOnUse" x="0" y="0" width="67" height="67">
<g id="clipPath2525">
<path id="path2523" d="M0 0H67V67H0V0Z" fill="white"/>
</g>
</mask>
<g mask="url(#mask0_823_5932)">
<g id="g2521">
<g id="g2527">
<path id="path2529 (Stroke)" fill-rule="evenodd" clip-rule="evenodd" d="M0 35.4706C0 43.7417 6.73204 50.4469 15.0363 50.4469H51.9639C60.2681 50.4469 67 43.7416 67 35.4706C67 27.1992 60.2681 20.494 51.9639 20.494H15.0363C6.73201 20.494 0 27.1992 0 35.4706ZM15.0363 46.5367C8.90016 46.5367 3.92578 41.5821 3.92578 35.4706C3.92578 29.3587 8.90019 24.4041 15.0363 24.4041H51.9639C58.0999 24.4041 63.0742 29.3587 63.0742 35.4706C63.0742 41.5821 58.0999 46.5367 51.9639 46.5367H15.0363Z" fill="black"/>
</g>
<g id="g2531">
<path id="path2533 (Stroke)" fill-rule="evenodd" clip-rule="evenodd" d="M21.2817 35.0763C21.2817 36.1646 22.1545 37.0469 23.2311 37.0469H57.9558C59.0324 37.0469 59.9052 36.1646 59.9052 35.0763C59.9052 33.988 59.0324 33.1057 57.9558 33.1057H23.2311C22.1545 33.1057 21.2817 33.988 21.2817 35.0763Z" fill="black"/>
</g>
<g id="g2535">
<path id="path2537 (Stroke)" fill-rule="evenodd" clip-rule="evenodd" d="M7.09473 35.0764C7.09473 36.1647 7.96095 37.047 9.02949 37.047H12.2541C13.3226 37.047 14.1888 36.1647 14.1888 35.0764C14.1888 33.9881 13.3226 33.1058 12.2541 33.1058H9.02949C7.96095 33.1058 7.09473 33.9881 7.09473 35.0764Z" fill="black"/>
</g>
<g id="g2539">
<path id="path2541 (Stroke)" fill-rule="evenodd" clip-rule="evenodd" d="M10.2469 35.4705C10.2469 39.3885 13.5996 42.5646 17.7352 42.5646C21.8708 42.5646 25.2234 39.3885 25.2234 35.4705C25.2234 31.5525 21.8708 28.3763 17.7352 28.3763C13.5996 28.3763 10.2469 31.5524 10.2469 35.4705ZM17.7352 38.6882C15.8593 38.6882 14.3386 37.2475 14.3386 35.4705C14.3386 33.6934 15.8593 32.2527 17.7352 32.2527C19.611 32.2527 21.1317 33.6933 21.1317 35.4705C21.1317 37.2476 19.611 38.6882 17.7352 38.6882Z" fill="black"/>
</g>
<g id="g2543">
<path id="path2545 (Stroke)" fill-rule="evenodd" clip-rule="evenodd" d="M15.3701 62.2704C16.4585 62.2704 17.3407 61.3529 17.3407 60.2211V56.4373C17.3407 55.3055 16.4585 54.388 15.3701 54.388C14.2818 54.388 13.3995 55.3055 13.3995 56.4373V60.2211C13.3995 61.3529 14.2818 62.2704 15.3701 62.2704Z" fill="black"/>
</g>
<g id="g2547">
<path id="path2549 (Stroke)" fill-rule="evenodd" clip-rule="evenodd" d="M6.70002 62.2703C7.78835 62.2703 8.67061 61.3528 8.67061 60.221V56.4372C8.67061 55.3054 7.78835 54.3879 6.70002 54.3879C5.61169 54.3879 4.72943 55.3054 4.72943 56.4372V60.221C4.72943 61.3528 5.61169 62.2703 6.70002 62.2703Z" fill="black"/>
</g>
<g id="g2551">
<path id="path2553 (Stroke)" fill-rule="evenodd" clip-rule="evenodd" d="M24.8289 62.2704C25.9172 62.2704 26.7995 61.3529 26.7995 60.2211V56.4373C26.7995 55.3055 25.9172 54.388 24.8289 54.388C23.7405 54.388 22.8583 55.3055 22.8583 56.4373V60.2211C22.8583 61.3529 23.7405 62.2704 24.8289 62.2704Z" fill="black"/>
</g>
<g id="g2555">
<path id="path2557 (Stroke)" fill-rule="evenodd" clip-rule="evenodd" d="M33.5005 62.2704C34.5888 62.2704 35.4711 61.3529 35.4711 60.2211V56.4373C35.4711 55.3055 34.5888 54.388 33.5005 54.388C32.4122 54.388 31.5299 55.3055 31.5299 56.4373V60.2211C31.5299 61.3529 32.4122 62.2704 33.5005 62.2704Z" fill="black"/>
</g>
<g id="g2559">
<path id="path2561 (Stroke)" fill-rule="evenodd" clip-rule="evenodd" d="M42.1707 62.2705C43.259 62.2705 44.1413 61.353 44.1413 60.2212V56.4374C44.1413 55.3056 43.259 54.3882 42.1707 54.3882C41.0824 54.3882 40.2001 55.3056 40.2001 56.4374V60.2212C40.2001 61.353 41.0824 62.2705 42.1707 62.2705Z" fill="black"/>
</g>
<g id="g2563">
<path id="path2565 (Stroke)" fill-rule="evenodd" clip-rule="evenodd" d="M51.6292 62.2704C52.7175 62.2704 53.5997 61.3529 53.5997 60.2211V56.4373C53.5997 55.3055 52.7175 54.388 51.6292 54.388C50.5408 54.388 49.6586 55.3055 49.6586 56.4373V60.2211C49.6586 61.3529 50.5408 62.2704 51.6292 62.2704Z" fill="black"/>
</g>
<g id="g2567">
<path id="path2569 (Stroke)" fill-rule="evenodd" clip-rule="evenodd" d="M60.3004 62.2704C61.3887 62.2704 62.2709 61.3529 62.2709 60.2211V56.4373C62.2709 55.3055 61.3887 54.388 60.3004 54.388C59.212 54.388 58.3298 55.3055 58.3298 56.4373V60.2211C58.3298 61.3529 59.212 62.2704 60.3004 62.2704Z" fill="black"/>
</g>
<g id="g2571">
<path id="path2573 (Stroke)" fill-rule="evenodd" clip-rule="evenodd" d="M59.6711 16.788C60.4085 17.5254 61.604 17.5254 62.3414 16.788L66.4473 12.6822C67.1847 11.9448 67.1848 10.7492 66.4474 10.0118C65.71 9.27437 64.5144 9.27435 63.777 10.0117L59.6711 14.1176C58.9337 14.855 58.9337 16.0506 59.6711 16.788Z" fill="black"/>
</g>
<g id="g2575">
<path id="path2577 (Stroke)" fill-rule="evenodd" clip-rule="evenodd" d="M66.4473 12.7914C67.1847 11.9803 67.1847 10.6652 66.4473 9.85403L62.3415 5.33755C61.6041 4.52641 60.4085 4.52641 59.6711 5.33755C58.9337 6.14869 58.9337 7.4638 59.6711 8.27494L63.777 12.7914C64.5144 13.6026 65.7099 13.6026 66.4473 12.7914Z" fill="black"/>
</g>
<g id="g2579">
<path id="path2581 (Stroke)" fill-rule="evenodd" clip-rule="evenodd" d="M0 11.4292C0 12.5175 0.878816 13.3998 1.96289 13.3998H65.0371C66.1212 13.3998 67 12.5175 67 11.4292C67 10.3409 66.1212 9.4586 65.0371 9.4586H1.96289C0.878816 9.4586 0 10.3409 0 11.4292Z" fill="black"/>
</g>
<g id="g2583">
<path id="path2585 (Stroke)" fill-rule="evenodd" clip-rule="evenodd" d="M7.32932 16.7879C8.06671 16.0504 8.06669 14.8549 7.32928 14.1175L3.22339 10.0116C2.48598 9.27423 1.29042 9.27425 0.553029 10.0117C-0.184359 10.7491 -0.184341 11.9447 0.55307 12.6821L4.65896 16.7879C5.39637 17.5253 6.59194 17.5253 7.32932 16.7879Z" fill="black"/>
</g>
<g id="g2587">
<path id="path2589 (Stroke)" fill-rule="evenodd" clip-rule="evenodd" d="M0.55305 12.7914C1.29045 13.6026 2.48601 13.6026 3.22341 12.7914L7.3293 8.27494C8.0667 7.4638 8.0667 6.14869 7.3293 5.33755C6.5919 4.52641 5.39634 4.52641 4.65894 5.33755L0.55305 9.85403C-0.18435 10.6652 -0.18435 11.9803 0.55305 12.7914Z" fill="black"/>
</g>
</g>
</g>
</g>
</g>
</g>
</g>
</svg>
