<svg width="16" height="16" viewBox="0 0 16 16" fill="none" xmlns="http://www.w3.org/2000/svg">
<g id="Group 1457533721">
<path id="Vector" d="M12.6671 7.99976C12.2984 7.99976 12.0004 8.29844 12.0004 8.66645V13.9999C12.0004 14.3673 11.7017 14.6666 11.3337 14.6666H2.00006C1.63205 14.6666 1.33338 14.3673 1.33338 13.9999V4.66632C1.33338 4.29898 1.63205 3.99963 2.00006 3.99963H7.33356C7.70224 3.99963 8.00025 3.70096 8.00025 3.33295C8.00025 2.96494 7.70224 2.66626 7.33356 2.66626H2.00006C0.897362 2.66626 0 3.56362 0 4.66632V13.9999C0 15.1027 0.897362 16 2.00006 16H11.3337C12.4364 16 13.3338 15.1027 13.3338 13.9999V8.66645C13.3338 8.29777 13.0357 7.99976 12.6671 7.99976Z" fill="#2F75F1"/>
<path id="Vector_2" d="M6.25083 7.39239C6.20416 7.43905 6.17282 7.49839 6.15949 7.56239L5.68814 9.9198C5.66614 10.0291 5.70081 10.1418 5.77948 10.2211C5.84281 10.2845 5.92815 10.3185 6.01549 10.3185C6.03682 10.3185 6.05882 10.3165 6.08082 10.3118L8.43756 9.84046C8.5029 9.82713 8.56223 9.79579 8.60823 9.74913L13.8831 4.47429L11.5263 2.11755L6.25083 7.39239Z" fill="#2F75F1"/>
<path id="Vector_3" d="M15.5119 0.487515C14.8618 -0.162505 13.8045 -0.162505 13.1551 0.487515L12.2324 1.41021L14.5892 3.76695L15.5119 2.84426C15.8265 2.53025 15.9999 2.11157 15.9999 1.66622C15.9999 1.22087 15.8265 0.802192 15.5119 0.487515Z" fill="#2F75F1"/>
</g>
</svg>
