<svg width="16" height="16" viewBox="0 0 16 16" fill="none" xmlns="http://www.w3.org/2000/svg">
<g id="Group 1457534047">
<path id="Vector" d="M7.29341 10.707C7.48093 10.8945 7.73524 10.9998 8.00041 10.9998C8.26557 10.9998 8.51988 10.8945 8.70741 10.707L11.7074 7.707C11.8896 7.5184 11.9904 7.2658 11.9881 7.0036C11.9858 6.7414 11.8806 6.49059 11.6952 6.30518C11.5098 6.11977 11.259 6.01461 10.9968 6.01233C10.7346 6.01005 10.482 6.11084 10.2934 6.293L9.00041 7.586V1C9.00041 0.734784 8.89505 0.48043 8.70751 0.292893C8.51998 0.105357 8.26562 0 8.00041 0C7.73519 0 7.48084 0.105357 7.2933 0.292893C7.10576 0.48043 7.00041 0.734784 7.00041 1V7.586L5.70741 6.293C5.5188 6.11084 5.2662 6.01005 5.00401 6.01233C4.74181 6.01461 4.491 6.11977 4.30559 6.30518C4.12018 6.49059 4.01501 6.7414 4.01273 7.0036C4.01045 7.2658 4.11125 7.5184 4.29341 7.707L7.29341 10.707Z" fill="white"/>
<path id="Vector_2" d="M15 11C14.7348 11 14.4804 11.1054 14.2929 11.2929C14.1054 11.4804 14 11.7348 14 12V14H2V12C2 11.7348 1.89464 11.4804 1.70711 11.2929C1.51957 11.1054 1.26522 11 1 11C0.734784 11 0.48043 11.1054 0.292893 11.2929C0.105357 11.4804 0 11.7348 0 12V15C0 15.2652 0.105357 15.5196 0.292893 15.7071C0.48043 15.8946 0.734784 16 1 16H15C15.2652 16 15.5196 15.8946 15.7071 15.7071C15.8946 15.5196 16 15.2652 16 15V12C16 11.7348 15.8946 11.4804 15.7071 11.2929C15.5196 11.1054 15.2652 11 15 11Z" fill="white"/>
</g>
</svg>
