<svg width="26" height="23" viewBox="0 0 26 23" fill="none" xmlns="http://www.w3.org/2000/svg">
<g id="free-icon-virtual-reality-4373589 2" clip-path="url(#clip0_661_380)">
<path id="Vector" d="M20.8154 23H5.27456C2.69944 23 0.612305 21.0694 0.612305 18.6875V4.3125C0.612305 1.93056 2.69944 0 5.27456 0H20.8154C23.3905 0 25.4777 1.93056 25.4777 4.3125V18.6875C25.4777 21.0694 23.3905 23 20.8154 23Z" fill="#FFE6E2"/>
<path id="Vector_2" d="M13.0506 17.25C10.8562 17.25 9.67667 15.8549 8.72791 14.3477C8.69372 14.288 8.47537 13.9071 8.37746 13.6864C8.29509 13.5046 8.2205 13.3019 8.14901 13.0676C8.0713 12.8132 8.23137 12.5479 8.50722 12.4761C8.78308 12.4035 9.06903 12.5522 9.14673 12.8074C9.20656 13.0036 9.26795 13.1711 9.33478 13.3177C9.4218 13.5118 9.63471 13.8819 9.63471 13.8819C10.5407 15.3216 11.474 16.2912 13.0514 16.2912C14.5992 16.2912 15.4944 15.3812 16.4369 13.9143C16.4991 13.8108 16.6941 13.4809 16.768 13.3177C16.8348 13.1697 16.8962 13.0029 16.9552 12.8074C17.0322 12.553 17.3173 12.4027 17.594 12.4753C17.869 12.5472 18.0299 12.8117 17.953 13.0662C17.8822 13.2997 17.8069 13.5024 17.7237 13.6872C17.6134 13.9308 17.3624 14.3462 17.3337 14.393C16.3771 15.8822 15.2022 17.25 13.0506 17.25Z" fill="#FD907E"/>
<path id="Vector_3" d="M13.0451 15.3309C12.5758 15.3309 12.1072 15.2289 11.7412 15.0248C11.4964 14.8882 11.4172 14.5935 11.5656 14.3671C11.7132 14.14 12.031 14.0674 12.2766 14.2047C12.6861 14.4332 13.4041 14.4332 13.8136 14.2047C14.0583 14.0674 14.3769 14.14 14.5246 14.3671C14.6722 14.5935 14.5937 14.8882 14.349 15.0248C13.983 15.2289 13.5144 15.3309 13.0451 15.3309Z" fill="#FD907E"/>
<path id="Vector_4" d="M18.217 9.637C18.2201 9.61041 18.2309 9.58525 18.2294 9.55794C18.0693 6.97547 15.5113 5.681 13.0364 5.75216C11.072 5.79816 10.4092 6.50684 10.1862 6.98913C9.27319 7.14581 7.98796 7.80491 7.87063 9.55578C7.86907 9.58309 7.87918 9.60825 7.88228 9.63484C7.27697 9.78578 6.82861 10.2932 6.82861 10.9006V12.0987C6.82861 12.8254 7.46734 13.4162 8.25293 13.4162H17.8362C18.6218 13.4162 19.2605 12.8254 19.2605 12.0987V10.9006C19.2613 10.2968 18.8176 9.79225 18.217 9.637ZM16.1531 11.9787H9.93678C9.65083 11.9787 9.4185 11.7638 9.4185 11.4993C9.4185 11.2348 9.65083 11.0199 9.93678 11.0199H16.1531C16.4391 11.0199 16.6714 11.2348 16.6714 11.4993C16.6714 11.7638 16.4391 11.9787 16.1531 11.9787Z" fill="#FC573B"/>
</g>
<defs>
<clipPath id="clip0_661_380">
<rect width="24.8654" height="23" fill="white" transform="translate(0.612305)"/>
</clipPath>
</defs>
</svg>
