<svg xmlns="http://www.w3.org/2000/svg" width="12.8" height="13.892" viewBox="0 0 12.8 13.892">
  <g id="그룹_19" data-name="그룹 19" transform="translate(-5.601 -4.8)">
    <path id="패스_39" data-name="패스 39" d="M12,4.8a3.554,3.554,0,1,0,3.554,3.554A3.554,3.554,0,0,0,12,4.8Z" fill="#2f75f1" fill-rule="evenodd"/>
    <path id="패스_40" data-name="패스 40" d="M17.823,14.172a12.408,12.408,0,0,0-11.645,0,1.088,1.088,0,0,0-.577.961v2.41a1.149,1.149,0,0,0,1.149,1.149h10.5A1.149,1.149,0,0,0,18.4,17.543v-2.41A1.088,1.088,0,0,0,17.823,14.172Z" fill="#2f75f1" fill-rule="evenodd"/>
  </g>
</svg>
