<svg width="23" height="23" viewBox="0 0 23 23" fill="none" xmlns="http://www.w3.org/2000/svg">
<g id="Group 1457534036">
<rect id="Rectangle 583" width="23" height="23" rx="3" fill="#F3F4F6"/>
<path id="Vector" d="M16.7 6H6.3C5.95522 6 5.62456 6.14486 5.38076 6.40273C5.13696 6.66059 5 7.01033 5 7.375V15.625C5 15.9896 5.13696 16.3394 5.38076 16.5973C5.62456 16.8551 5.95522 17 6.3 17H16.7C17.0448 17 17.3754 16.8551 17.6192 16.5973C17.863 16.3394 18 15.9896 18 15.625V7.375C18 7.01033 17.863 6.66059 17.6192 6.40273C17.3754 6.14486 17.0448 6 16.7 6ZM9.9712 12.6247C10.1343 12.6247 10.2947 12.5807 10.4372 12.4969C10.5877 12.4076 10.7654 12.3852 10.9314 12.4346C11.0975 12.4839 11.2382 12.6011 11.3225 12.7602C11.4069 12.9193 11.4281 13.1073 11.3814 13.2829C11.3348 13.4585 11.224 13.6073 11.0736 13.6966C10.7246 13.9029 10.3301 14.0077 9.9304 14C9.53066 13.9923 9.14 13.8726 8.79833 13.653C8.45665 13.4335 8.1762 13.1219 7.98563 12.7502C7.79505 12.3784 7.70117 11.9598 7.71359 11.5371C7.726 11.1144 7.84426 10.7028 8.05629 10.3444C8.26831 9.98586 8.5665 9.69329 8.92041 9.49656C9.27432 9.29983 9.67124 9.20597 10.0707 9.22459C10.4701 9.2432 10.8577 9.37361 11.1939 9.6025C11.2683 9.64998 11.3331 9.71279 11.3842 9.78721C11.4353 9.86163 11.4719 9.94615 11.4915 10.0358C11.5112 10.1254 11.5137 10.2183 11.4988 10.3089C11.4839 10.3995 11.452 10.4861 11.405 10.5635C11.3579 10.6408 11.2966 10.7074 11.2248 10.7593C11.1529 10.8111 11.072 10.8472 10.9867 10.8654C10.9014 10.8835 10.8136 10.8834 10.7283 10.865C10.6431 10.8465 10.5622 10.8102 10.4905 10.7582C10.3653 10.6729 10.2229 10.6196 10.0748 10.6025C9.9267 10.5856 9.77686 10.6053 9.63721 10.6602C9.49756 10.7151 9.37193 10.8037 9.27029 10.919C9.16865 11.0342 9.09381 11.1729 9.0517 11.3241C9.00958 11.4752 9.00136 11.6347 9.02768 11.7899C9.054 11.945 9.11414 12.0915 9.20332 12.2177C9.2925 12.3439 9.40828 12.4464 9.54146 12.5171C9.67464 12.5878 9.8222 12.6246 9.9712 12.6247ZM13.9921 12.6247C14.156 12.6254 14.3172 12.5811 14.4601 12.4962C14.5348 12.4494 14.6175 12.4188 14.7035 12.4063C14.7896 12.3939 14.8771 12.3998 14.9609 12.4237C15.0447 12.4476 15.1231 12.489 15.1915 12.5455C15.26 12.602 15.3171 12.6724 15.3593 12.7526C15.4016 12.8328 15.4283 12.9211 15.4378 13.0124C15.4473 13.1036 15.4394 13.196 15.4146 13.284C15.3898 13.3719 15.3486 13.4538 15.2933 13.5247C15.2381 13.5955 15.1701 13.654 15.0932 13.6966C14.7442 13.9025 14.3499 14.0067 13.9503 13.9987C13.5508 13.9907 13.1604 13.8707 12.8191 13.6509C12.4778 13.4312 12.1977 13.1196 12.0075 12.7479C11.8172 12.3762 11.7236 11.9578 11.7361 11.5354C11.7488 11.1129 11.8672 10.7016 12.0792 10.3434C12.2912 9.98516 12.5893 9.69285 12.9431 9.49632C13.2969 9.29978 13.6936 9.20606 14.0928 9.22471C14.492 9.24336 14.8794 9.37373 15.2154 9.6025C15.3603 9.70133 15.4621 9.85698 15.4985 10.0352C15.5349 10.2135 15.5028 10.3997 15.4094 10.553C15.316 10.7062 15.1688 10.8139 15.0003 10.8524C14.8318 10.8909 14.6557 10.857 14.5108 10.7582C14.3855 10.6729 14.2432 10.6196 14.0951 10.6025C13.9469 10.5856 13.7971 10.6053 13.6575 10.6602C13.5178 10.7151 13.3921 10.8037 13.2906 10.919C13.1889 11.0342 13.1141 11.1729 13.072 11.3241C13.0298 11.4752 13.0216 11.6347 13.0479 11.7899C13.0742 11.945 13.1344 12.0915 13.2235 12.2177C13.3128 12.3439 13.4285 12.4464 13.5617 12.5171C13.6949 12.5878 13.8418 12.6246 13.9908 12.6247H13.9921Z" fill="#3A74F5"/>
</g>
</svg>
