<svg width="20" height="16" viewBox="0 0 20 16" fill="none" xmlns="http://www.w3.org/2000/svg">
<path id="Vector" d="M16.42 0H3.48C2.78 0 2.18 0.204604 1.68 0.511509C0.6 1.22762 0 2.35294 0 3.58056V12.4399C0 14.3836 1.6 16 3.48 16H16.52C18.42 16 20 14.3632 20 12.4399V3.58056C19.9 1.63683 18.4 0 16.42 0ZM3.48 2.04604H16.52H16.62L11.14 6.83376C10.44 7.44757 9.54 7.44757 8.86 6.83376L3.28 2.04604H3.48ZM17.92 12.5217C17.92 13.3402 17.22 14.0563 16.42 14.0563H3.48C2.68 14.0563 1.98 13.3402 1.98 12.5217V3.58056L7.56 8.36829C8.26 8.9821 9.16 9.289 9.94 9.289C10.72 9.289 11.64 8.9821 12.32 8.36829L17.9 3.58056V12.5217H17.92Z" fill="#556372"/>
</svg>
