<svg width="23" height="23" viewBox="0 0 23 23" fill="none" xmlns="http://www.w3.org/2000/svg">
<g id="Group 1457534035">
<rect id="Rectangle 1472" width="23" height="23" rx="3" fill="#F3F4F6"/>
<path id="Vector" d="M15.6572 6.49394C14.9709 5.92283 14.1738 5.50007 13.316 5.25228C12.4583 5.00448 11.5585 4.93704 10.6734 5.05419C9.03593 5.26691 7.54084 6.09482 6.49165 7.36982C5.44246 8.64481 4.91782 10.2713 5.02427 11.9191C5.13072 13.5668 5.86027 15.1123 7.06479 16.2417C8.26931 17.3711 9.85851 17.9998 11.5097 18H15.2916C16.0096 17.9992 16.698 17.7135 17.2057 17.2058C17.7135 16.6981 17.9991 16.0097 17.9999 15.2917V11.1257V11.0916C17.9426 10.2062 17.7053 9.34183 17.3025 8.5513C16.8997 7.76077 16.3398 7.06072 15.6572 6.49394ZM9.33327 8.79169H11.4999C11.6436 8.79169 11.7814 8.84876 11.883 8.95034C11.9845 9.05192 12.0416 9.1897 12.0416 9.33336C12.0416 9.47701 11.9845 9.61479 11.883 9.71637C11.7814 9.81795 11.6436 9.87502 11.4999 9.87502H9.33327C9.18961 9.87502 9.05184 9.81795 8.95026 9.71637C8.84867 9.61479 8.79161 9.47701 8.79161 9.33336C8.79161 9.1897 8.84867 9.05192 8.95026 8.95034C9.05184 8.84876 9.18961 8.79169 9.33327 8.79169ZM13.6666 14.2084H9.33327C9.18961 14.2084 9.05184 14.1513 8.95026 14.0497C8.84867 13.9481 8.79161 13.8103 8.79161 13.6667C8.79161 13.523 8.84867 13.3853 8.95026 13.2837C9.05184 13.1821 9.18961 13.125 9.33327 13.125H13.6666C13.8103 13.125 13.948 13.1821 14.0496 13.2837C14.1512 13.3853 14.2083 13.523 14.2083 13.6667C14.2083 13.8103 14.1512 13.9481 14.0496 14.0497C13.948 14.1513 13.8103 14.2084 13.6666 14.2084ZM13.6666 12.0417H9.33327C9.18961 12.0417 9.05184 11.9846 8.95026 11.883C8.84867 11.7815 8.79161 11.6437 8.79161 11.5C8.79161 11.3564 8.84867 11.2186 8.95026 11.117C9.05184 11.0154 9.18961 10.9584 9.33327 10.9584H13.6666C13.8103 10.9584 13.948 11.0154 14.0496 11.117C14.1512 11.2186 14.2083 11.3564 14.2083 11.5C14.2083 11.6437 14.1512 11.7815 14.0496 11.883C13.948 11.9846 13.8103 12.0417 13.6666 12.0417Z" fill="#5845EA"/>
</g>
</svg>
