<svg width="65" height="65" viewBox="0 0 65 65" fill="none" xmlns="http://www.w3.org/2000/svg">
<g id="Group 1457533770">
<path id="Vector" d="M52.8125 65H12.1875C5.45594 65 0 59.5441 0 52.8125V12.1875C0 5.45594 5.45594 0 12.1875 0H52.8125C59.5441 0 65 5.45594 65 12.1875V52.8125C65 59.5441 59.5441 65 52.8125 65Z" fill="#E3F8FB"/>
<path id="Vector_2" d="M24.3749 22.3438C24.0011 22.3438 23.6985 22.6464 23.6985 23.0202V24.375H25.0533V23.0202C25.0513 22.6464 24.7486 22.3438 24.3749 22.3438Z" fill="#25C6DA"/>
<path id="Vector_3" d="M28.7767 16.25H19.9733C17.9197 16.25 16.25 17.9197 16.25 19.9733V28.7747C16.25 30.8303 17.9197 32.5 19.9733 32.5H28.7747C30.8303 32.5 32.5 30.8303 32.5 28.7767V19.9733C32.5 17.9197 30.8303 16.25 28.7767 16.25ZM27.0827 27.4219C27.0827 27.9825 26.6277 28.4375 26.067 28.4375C25.5064 28.4375 25.0514 27.9825 25.0514 27.4219V26.4062H23.6966V27.4219C23.6966 27.9825 23.2416 28.4375 22.6809 28.4375C22.1203 28.4375 21.6653 27.9825 21.6653 27.4219V23.0202C21.6673 21.5272 22.882 20.3125 24.375 20.3125C25.868 20.3125 27.0827 21.5272 27.0827 23.0202V27.4219Z" fill="#25C6DA"/>
<path id="Vector_4" d="M41.9798 28.4375C41.2323 28.4375 40.625 27.8301 40.625 27.0826V25.7278C40.625 24.9823 40.0177 24.375 39.2702 24.375H37.9153C37.1698 24.375 36.5625 23.7676 36.5625 23.0201C36.5625 22.2726 37.1698 21.6653 37.9173 21.6653H39.2722C41.5127 21.6653 43.3347 23.4873 43.3347 25.7278V27.0826C43.3327 27.8301 42.7273 28.4375 41.9798 28.4375Z" fill="#25C6DA"/>
<path id="Vector_5" d="M27.0826 43.3326H25.7278C23.4873 43.3326 21.6653 41.5106 21.6653 39.2701V37.9153C21.6653 37.1678 22.2726 36.5604 23.0201 36.5604C23.7676 36.5604 24.375 37.1698 24.375 37.9173V39.2721C24.375 40.0176 24.9823 40.625 25.7298 40.625H27.0847C27.8301 40.625 28.4375 41.2323 28.4375 41.9798C28.4375 42.7273 27.8301 43.3326 27.0826 43.3326Z" fill="#25C6DA"/>
<path id="Vector_6" d="M40.625 41.1999C40.9236 40.8545 41.0942 40.4442 41.1897 39.9486H40.0603C40.1558 40.4442 40.3264 40.8545 40.625 41.1999Z" fill="#8DE2EC"/>
<path id="Vector_7" d="M45.0267 32.5H36.2253C34.1697 32.5 32.5 34.1697 32.5 36.2233V45.0247C32.5 47.0803 34.1697 48.75 36.2233 48.75H45.0247C47.0803 48.75 48.75 47.0803 48.75 45.0267V36.2253C48.75 34.1697 47.0803 32.5 45.0267 32.5ZM43.9014 42.6827C44.4478 42.8106 44.787 43.355 44.6611 43.9014C44.5514 44.3706 44.135 44.6875 43.6719 44.6875C43.5967 44.6875 43.5175 44.6794 43.4403 44.6611C42.3434 44.4052 41.4131 44.0984 40.623 43.6902C39.8348 44.0984 38.9025 44.4052 37.8056 44.6611C37.7305 44.6794 37.6533 44.6875 37.5781 44.6875C37.117 44.6875 36.6986 44.3706 36.5889 43.9014C36.4609 43.355 36.8002 42.8086 37.3486 42.6827C37.9478 42.5425 38.4313 42.3963 38.8659 42.2439C38.4353 41.6427 38.155 40.885 38.0189 39.9466H37.5781C37.0175 39.9466 36.5625 39.4916 36.5625 38.9309C36.5625 38.3703 37.0175 37.9153 37.5781 37.9153H39.6094V37.5781C39.6094 37.0175 40.0644 36.5625 40.625 36.5625C41.1856 36.5625 41.6406 37.0175 41.6406 37.5781V37.9173H43.6719C44.2325 37.9173 44.6875 38.3723 44.6875 38.933C44.6875 39.4936 44.2325 39.9486 43.6719 39.9486H43.2311C43.095 40.885 42.8147 41.6427 42.3841 42.2459C42.8187 42.3963 43.3022 42.5425 43.9014 42.6827Z" fill="#8DE2EC"/>
</g>
</svg>
