<svg xmlns="http://www.w3.org/2000/svg" width="12" height="10.25" viewBox="0 0 12 10.25">
  <g id="그룹_15" data-name="그룹 15" transform="translate(-871 -997.875)">
    <path id="패스_34" data-name="패스 34" d="M10.125,16.625a2.253,2.253,0,0,1-2.25-2.25,2.152,2.152,0,0,1,.106-.679.5.5,0,0,1,.948.316,1.143,1.143,0,0,0-.054.362,1.249,1.249,0,0,0,2.464.292.5.5,0,1,1,.974.228A2.236,2.236,0,0,1,10.125,16.625Z" transform="translate(865 991)" fill="#2f75f1"/>
    <path id="패스_35" data-name="패스 35" d="M17.625,16.75a.383.383,0,0,1-.1-.015l-11.25-3.25A.374.374,0,0,1,6,13.125v-2.25a.374.374,0,0,1,.271-.36l11.25-3.25A.376.376,0,0,1,18,7.626v8.75a.376.376,0,0,1-.15.3A.381.381,0,0,1,17.625,16.75Z" transform="translate(865 991)" fill="#2f75f1"/>
    <path id="패스_36" data-name="패스 36" d="M17.5,17.125a.5.5,0,0,1-.5-.5V7.375a.5.5,0,1,1,1,0v9.25A.5.5,0,0,1,17.5,17.125Z" transform="translate(865 991)" fill="#2f75f1"/>
    <path id="패스_37" data-name="패스 37" d="M6.5,14.125a.5.5,0,0,1-.5-.5v-3.25a.5.5,0,1,1,1,0v3.25A.5.5,0,0,1,6.5,14.125Z" transform="translate(865 991)" fill="#2f75f1"/>
  </g>
</svg>
