<svg width="17" height="17" viewBox="0 0 17 17" fill="none" xmlns="http://www.w3.org/2000/svg">
<g id="Layer_1">
<path id="Vector" d="M8.5 0C3.808 0 0 3.808 0 8.5C0 13.192 3.808 17 8.5 17C13.192 17 17 13.192 17 8.5C17 3.808 13.192 0 8.5 0ZM8.5 13.6C7.87667 13.6 7.36667 13.09 7.36667 12.4667C7.36667 11.8433 7.87667 11.3333 8.5 11.3333C9.12333 11.3333 9.63333 11.8433 9.63333 12.4667C9.63333 13.09 9.12333 13.6 8.5 13.6ZM9.79767 4.811L9.418 9.35567C9.37833 9.83167 8.98167 10.2 8.5 10.2C8.01833 10.2 7.62167 9.83167 7.582 9.35567L7.20233 4.811C7.14 4.05167 7.735 3.4 8.5 3.4C9.22533 3.4 9.80333 3.98933 9.80333 4.70333C9.80333 4.73733 9.80333 4.777 9.79767 4.811Z" fill="#EB5757"/>
</g>
</svg>
