<svg width="23" height="23" viewBox="0 0 23 23" fill="none" xmlns="http://www.w3.org/2000/svg">
<g id="Group 1457534070">
<path id="Vector" d="M0.25 4.6C0.25 2.19756 2.19756 0.25 4.6 0.25H18.4C20.8024 0.25 22.75 2.19756 22.75 4.6V18.4C22.75 20.8024 20.8024 22.75 18.4 22.75H4.6C2.19756 22.75 0.25 20.8024 0.25 18.4V4.6Z" fill="#E3F8FB" stroke="#94B1B5" stroke-width="0.5"/>
<path id="Vector_2" fill-rule="evenodd" clip-rule="evenodd" d="M6.45552 8.47363C6.90117 8.47363 7.26247 8.81852 7.26247 9.24392V13.3525C7.26247 13.7779 6.90117 14.1228 6.45552 14.1228C6.00986 14.1228 5.64844 13.7779 5.64844 13.3525V9.24392C5.64844 8.81852 6.00986 8.47363 6.45552 8.47363Z" fill="#8DE2EC"/>
<path id="Vector_3" fill-rule="evenodd" clip-rule="evenodd" d="M12.9124 8.47363C13.3581 8.47363 13.7195 8.81852 13.7195 9.24392V13.3525C13.7195 13.7779 13.3581 14.1228 12.9124 14.1228C12.4668 14.1228 12.1055 13.7779 12.1055 13.3525V9.24392C12.1055 8.81852 12.4668 8.47363 12.9124 8.47363Z" fill="#8DE2EC"/>
<path id="Vector_4" fill-rule="evenodd" clip-rule="evenodd" d="M9.68488 6.45605C10.1305 6.45605 10.492 6.79834 10.492 7.22054V15.3757C10.492 15.798 10.1305 16.1403 9.68488 16.1403C9.23923 16.1403 8.87793 15.798 8.87793 15.3757V7.22054C8.87793 6.79834 9.23923 6.45605 9.68488 6.45605Z" fill="#25C6DA"/>
<path id="Vector_5" fill-rule="evenodd" clip-rule="evenodd" d="M16.1409 8.07019C16.5866 8.07019 16.948 8.31264 16.948 8.6117V14.3882C16.948 14.6874 16.5866 14.9298 16.1409 14.9298C15.6953 14.9298 15.334 14.6874 15.334 14.3882V8.6117C15.334 8.31264 15.6953 8.07019 16.1409 8.07019Z" fill="#25C6DA"/>
</g>
</svg>
