<svg width="20" height="18" viewBox="0 0 20 18" fill="none" xmlns="http://www.w3.org/2000/svg">
<g id="3-Check">
<path id="Vector" d="M6.35928 17.8909C6.28466 17.8909 6.21133 17.8714 6.14658 17.8343C6.08182 17.7972 6.02788 17.7439 5.99011 17.6795C4.39 14.9535 0.126157 9.15178 0.0832641 9.09348C0.0223424 9.01067 -0.00674459 8.9087 0.00131976 8.80622C0.00938412 8.70373 0.0540612 8.60757 0.127185 8.53531L1.43787 7.24017C1.50907 7.1698 1.60269 7.12662 1.70244 7.11813C1.80218 7.10963 1.90175 7.13637 1.98383 7.19368L6.27002 10.1866C9.11964 6.52588 11.7678 3.99951 13.5084 2.51092C15.4593 0.842153 16.6997 0.0922932 16.7515 0.0610437C16.8181 0.0211042 16.8942 3.93271e-06 16.9718 5.73406e-09H19.0922C19.179 -1.41956e-05 19.2637 0.0263507 19.3352 0.0755991C19.4066 0.124847 19.4614 0.194653 19.4923 0.27576C19.5232 0.356867 19.5287 0.445444 19.5081 0.529747C19.4875 0.614051 19.4417 0.690097 19.3769 0.747805C16.2335 3.54742 12.9654 7.99568 10.7774 11.2342C8.39884 14.7544 6.74767 17.6459 6.73128 17.6747C6.69411 17.7399 6.64043 17.7942 6.57563 17.8322C6.51083 17.8701 6.43719 17.8904 6.3621 17.8909L6.35928 17.8909Z" fill="#7E7E7E"/>
</g>
</svg>
