<svg width="16" height="13" viewBox="0 0 16 13" fill="none" xmlns="http://www.w3.org/2000/svg">
<g id="Group 1457533850">
<path id="Vector" d="M7.81656 9.05064C7.68164 9.05064 7.55264 8.99634 7.45984 8.90066L4.00453 5.34505C3.70507 5.03733 3.92753 4.52532 4.36125 4.52532H6.17117V0.808093C6.17117 0.362672 6.5404 0 6.99386 0H8.63925C9.09272 0 9.46194 0.362672 9.46194 0.808093V4.52532H11.2719C11.7056 4.52532 11.928 5.03733 11.6286 5.34505L8.17328 8.90066C8.08048 8.99634 7.95148 9.05064 7.81656 9.05064Z" fill="#242A30"/>
<path id="Vector_2" d="M14.493 13.0001H1.1399C0.511327 13.0001 0 12.4834 0 11.8482V11.5191C0 10.8839 0.511327 10.3672 1.1399 10.3672H14.493C15.1216 10.3672 15.6329 10.8839 15.6329 11.5191V11.8482C15.6329 12.4834 15.1216 13.0001 14.493 13.0001Z" fill="#242A30"/>
</g>
</svg>
