<svg width="65" height="65" viewBox="0 0 65 65" fill="none" xmlns="http://www.w3.org/2000/svg">
<g id="Group 1457533772">
<path id="Vector" d="M52.8125 65H12.1875C5.45594 65 0 59.5441 0 52.8125V12.1875C0 5.45594 5.45594 0 12.1875 0H52.8125C59.5441 0 65 5.45594 65 12.1875V52.8125C65 59.5441 59.5441 65 52.8125 65Z" fill="#E3F8FB"/>
<path id="Vector_2" d="M45.0267 41.9798H44.6875V28.4375C44.6875 21.7181 39.2194 16.25 32.5 16.25C25.7806 16.25 20.3125 21.7181 20.3125 28.4375V41.9798H19.9733C17.9197 41.9798 16.25 43.6495 16.25 45.7031V46.3795C16.25 47.6877 17.3123 48.75 18.6205 48.75H46.3816C47.6877 48.75 48.75 47.6877 48.75 46.3795V45.7031C48.75 43.6495 47.0803 41.9798 45.0267 41.9798ZM23.0202 28.4375C23.0202 23.2111 27.2716 18.9577 32.5 18.9577C37.7284 18.9577 41.9798 23.2091 41.9798 28.4375V41.9798H23.0222L23.0202 28.4375Z" fill="#25C6DA"/>
<g id="Group">
<path id="Vector_3" d="M32.5 23.0203L24.375 27.7612L32.5 32.5001L40.625 27.7612L32.5 23.0203Z" fill="#8DE2EC"/>
<path id="Vector_4" d="M31.1452 34.0702V39.839L24.375 35.8862V30.1174L31.1452 34.0702Z" fill="#8DE2EC"/>
<path id="Vector_5" d="M40.6246 30.1174V35.8862L33.8545 39.839V34.0702L40.6246 30.1174Z" fill="#8DE2EC"/>
</g>
</g>
</svg>
