<svg width="69" height="69" viewBox="0 0 69 69" fill="none" xmlns="http://www.w3.org/2000/svg">
<g id="Group 1457533789">
<g id="_x30_7_Memphis_Style">
<g id="Group">
<path id="Vector" d="M48.9992 56.5091L31.6508 32.4326C28.4917 28.055 22.0009 28.055 18.8418 32.4326L1.50415 56.5091C-2.25886 61.7168 1.47178 69.0055 7.89794 69.0055H42.5947C49.0207 69.0055 52.7513 61.7168 48.9992 56.5091ZM42.5947 66.849H7.8978C3.22917 66.849 0.512156 61.5658 3.25066 57.7706L20.599 33.6941C22.8848 30.5134 27.6074 30.5134 29.9039 33.6941L47.2417 57.7706C49.9803 61.5551 47.2849 66.849 42.5947 66.849Z" fill="black"/>
<path id="Vector_2" d="M69 7.49363V25.5212C69 29.64 65.6467 33.0039 61.5172 33.0039H43.5003C39.3707 33.0039 36.0175 29.64 36.0175 25.5212V7.49363C36.0175 3.36411 39.3707 0 43.5003 0H61.5172C65.6467 0.00013952 69 3.36411 69 7.49363Z" fill="black"/>
</g>
</g>
</g>
</svg>
