<svg width="10" height="17" viewBox="0 0 10 17" fill="none" xmlns="http://www.w3.org/2000/svg">
<g id="Group">
<g id="Group 1457534245">
<path id="Vector" d="M4.99998 17.0001C4.82076 17.0001 4.64156 16.9273 4.50493 16.7818L0.205142 12.202C-0.0683806 11.9107 -0.0683806 11.4383 0.205142 11.1471C0.478554 10.8559 0.921935 10.8559 1.19548 11.1471L4.99998 15.1996L8.80451 11.1473C9.07803 10.856 9.52137 10.856 9.79476 11.1473C10.0684 11.4385 10.0684 11.9108 9.79476 12.2021L5.49504 16.7819C5.35834 16.9274 5.17914 17.0001 4.99998 17.0001Z" fill="#B7B7B7"/>
<path id="Vector_2" d="M4.99998 -0.000139713C4.82076 -0.000139713 4.64156 0.0727463 4.50493 0.218211L0.205142 4.79799C-0.0683806 5.08932 -0.0683806 5.56167 0.205142 5.85288C0.478554 6.14409 0.921935 6.14409 1.19548 5.85288L4.99998 1.80044L8.80451 5.85274C9.07803 6.14395 9.52137 6.14395 9.79476 5.85274C10.0684 5.56152 10.0684 5.08918 9.79476 4.79785L5.49504 0.21807C5.35834 0.0725808 5.17914 -0.000139713 4.99998 -0.000139713Z" fill="#B7B7B7"/>
</g>
</g>
</svg>
