<svg width="22" height="22" viewBox="0 0 22 22" fill="none" xmlns="http://www.w3.org/2000/svg">
<path id="Vector" d="M18.0321 2.53076C16.8697 1.5644 15.5196 0.849047 14.0668 0.429762C12.614 0.0104775 11.09 -0.103646 9.59086 0.0945828C6.81752 0.454526 4.28526 1.85542 2.50823 4.01282C0.731203 6.17022 -0.157376 8.92239 0.0229179 11.7105C0.203212 14.4986 1.43886 17.1137 3.47898 19.0248C5.51909 20.9358 8.21073 21.9995 11.0074 22H17.4129C18.629 21.9985 19.7949 21.5153 20.6548 20.6561C21.5148 19.797 21.9985 18.6322 22 17.4173V10.3681V10.3104C21.9029 8.81225 21.5009 7.34963 20.8187 6.01199C20.1365 4.67435 19.1883 3.48979 18.0321 2.53076ZM7.32114 6.41874H10.9909C11.2342 6.41874 11.4675 6.51531 11.6396 6.68719C11.8116 6.85908 11.9083 7.0922 11.9083 7.33529C11.9083 7.57837 11.8116 7.81149 11.6396 7.98338C11.4675 8.15527 11.2342 8.25183 10.9909 8.25183H7.32114C7.07782 8.25183 6.84447 8.15527 6.67242 7.98338C6.50036 7.81149 6.40371 7.57837 6.40371 7.33529C6.40371 7.0922 6.50036 6.85908 6.67242 6.68719C6.84447 6.51531 7.07782 6.41874 7.32114 6.41874ZM14.6606 15.5842H7.32114C7.07782 15.5842 6.84447 15.4876 6.67242 15.3157C6.50036 15.1439 6.40371 14.9107 6.40371 14.6676C6.40371 14.4246 6.50036 14.1914 6.67242 14.0195C6.84447 13.8477 7.07782 13.7511 7.32114 13.7511H14.6606C14.9039 13.7511 15.1372 13.8477 15.3093 14.0195C15.4813 14.1914 15.578 14.4246 15.578 14.6676C15.578 14.9107 15.4813 15.1439 15.3093 15.3157C15.1372 15.4876 14.9039 15.5842 14.6606 15.5842ZM14.6606 11.918H7.32114C7.07782 11.918 6.84447 11.8214 6.67242 11.6496C6.50036 11.4777 6.40371 11.2445 6.40371 11.0015C6.40371 10.7584 6.50036 10.5253 6.67242 10.3534C6.84447 10.1815 7.07782 10.0849 7.32114 10.0849H14.6606C14.9039 10.0849 15.1372 10.1815 15.3093 10.3534C15.4813 10.5253 15.578 10.7584 15.578 11.0015C15.578 11.2445 15.4813 11.4777 15.3093 11.6496C15.1372 11.8214 14.9039 11.918 14.6606 11.918Z" fill="#3784F6"/>
</svg>
