<svg width="13" height="20" viewBox="0 0 13 20" fill="none" xmlns="http://www.w3.org/2000/svg">
<g id="Group 1457534138">
<path id="Vector" d="M2.03704 3.88889C3.16206 3.88889 4.07407 3.01833 4.07407 1.94444C4.07407 0.870557 3.16206 0 2.03704 0C0.912012 0 0 0.870557 0 1.94444C0 3.01833 0.912012 3.88889 2.03704 3.88889Z" fill="#B9B8B6"/>
<path id="Vector_2" d="M2.03704 12.037C3.16206 12.037 4.07407 11.125 4.07407 9.99993C4.07407 8.8749 3.16206 7.96289 2.03704 7.96289C0.912012 7.96289 0 8.8749 0 9.99993C0 11.125 0.912012 12.037 2.03704 12.037Z" fill="#B9B8B6"/>
<path id="Vector_3" d="M2.03704 20.0001C3.16206 20.0001 4.07407 19.0881 4.07407 17.9631C4.07407 16.838 3.16206 15.926 2.03704 15.926C0.912012 15.926 0 16.838 0 17.9631C0 19.0881 0.912012 20.0001 2.03704 20.0001Z" fill="#B9B8B6"/>
<path id="Vector_4" d="M10.0019 3.88889C11.1269 3.88889 12.0389 3.01833 12.0389 1.94444C12.0389 0.870557 11.1269 0 10.0019 0C8.87686 0 7.96484 0.870557 7.96484 1.94444C7.96484 3.01833 8.87686 3.88889 10.0019 3.88889Z" fill="#B9B8B6"/>
<path id="Vector_5" d="M10.0019 12.037C11.1269 12.037 12.0389 11.125 12.0389 9.99993C12.0389 8.8749 11.1269 7.96289 10.0019 7.96289C8.87686 7.96289 7.96484 8.8749 7.96484 9.99993C7.96484 11.125 8.87686 12.037 10.0019 12.037Z" fill="#B9B8B6"/>
<path id="Vector_6" d="M10.0019 20.0001C11.1269 20.0001 12.0389 19.0881 12.0389 17.9631C12.0389 16.838 11.1269 15.926 10.0019 15.926C8.87686 15.926 7.96484 16.838 7.96484 17.9631C7.96484 19.0881 8.87686 20.0001 10.0019 20.0001Z" fill="#B9B8B6"/>
</g>
</svg>
