<svg width="26" height="16" viewBox="0 0 26 16" fill="none" xmlns="http://www.w3.org/2000/svg">
<g id="Group 1457534079">
<path id="Vector" fill-rule="evenodd" clip-rule="evenodd" d="M8.84567 15.2109C8.34258 15.7231 7.5195 15.7305 7.00726 15.2274L0.389077 8.72742C0.140205 8.48302 0 8.14879 0 7.8C0 7.45121 0.140205 7.11698 0.389077 6.87258L7.00726 0.372519C7.5195 -0.130568 8.34258 -0.123158 8.84567 0.389081C9.34875 0.90132 9.34134 1.7244 8.82911 2.22749L4.4789 6.5H24.7C25.418 6.5 26 7.08201 26 7.8C26 8.51799 25.418 9.1 24.7 9.1H4.4789L8.82911 13.3726C9.34134 13.8756 9.34875 14.6987 8.84567 15.2109Z" fill="black"/>
</g>
</svg>
