<svg width="23" height="23" viewBox="0 0 23 23" fill="none" xmlns="http://www.w3.org/2000/svg">
<g id="Group 1457534069">
<path id="Vector" d="M18.6875 22.75H4.3125C2.06863 22.75 0.25 20.9314 0.25 18.6875V4.3125C0.25 2.06863 2.06863 0.25 4.3125 0.25H18.6875C20.9314 0.25 22.75 2.06863 22.75 4.3125V18.6875C22.75 20.9314 20.9314 22.75 18.6875 22.75Z" fill="#FFE6E2" stroke="#94B1B5" stroke-width="0.5"/>
<path id="Vector_2" d="M11.5051 17.25C9.47539 17.25 8.38433 15.8549 7.50674 14.3477C7.47511 14.288 7.27314 13.9071 7.18258 13.6864C7.10639 13.5046 7.03739 13.3019 6.97127 13.0676C6.89939 12.8131 7.04745 12.5479 7.30261 12.476C7.55777 12.4034 7.82227 12.5522 7.89414 12.8074C7.94949 13.0036 8.00627 13.1711 8.06808 13.3177C8.14858 13.5118 8.34552 13.8819 8.34552 13.8819C9.18358 15.3216 10.0468 16.2912 11.5059 16.2912C12.9376 16.2912 13.7656 15.3812 14.6375 13.9143C14.695 13.8108 14.8754 13.4808 14.9436 13.3177C15.0055 13.1696 15.0622 13.0029 15.1169 12.8074C15.188 12.5529 15.4518 12.4027 15.7077 12.4753C15.9621 12.5472 16.1109 12.8117 16.0397 13.0661C15.9743 13.2997 15.9046 13.5024 15.8277 13.6871C15.7256 13.9308 15.4935 14.3462 15.4669 14.3929C14.5821 15.8822 13.4954 17.25 11.5051 17.25Z" fill="#FD907E"/>
<path id="Vector_3" d="M11.5003 15.331C11.0661 15.331 10.6327 15.2289 10.2942 15.0248C10.0678 14.8882 9.99447 14.5935 10.1318 14.3671C10.2683 14.14 10.5623 14.0674 10.7894 14.2047C11.1682 14.4332 11.8323 14.4332 12.2111 14.2047C12.4375 14.0674 12.7322 14.14 12.8688 14.3671C13.0053 14.5935 12.9327 14.8882 12.7063 15.0248C12.3678 15.2289 11.9344 15.331 11.5003 15.331Z" fill="#FD907E"/>
<path id="Vector_4" d="M16.284 9.63714C16.2869 9.61054 16.2969 9.58539 16.2955 9.55808C16.1474 6.97561 13.7813 5.68114 11.4921 5.75229C9.67509 5.79829 9.062 6.50698 8.85572 6.98926C8.01119 7.14595 6.82237 7.80504 6.71384 9.55592C6.71241 9.58323 6.72175 9.60839 6.72463 9.63498C6.16472 9.78592 5.75 10.2934 5.75 10.9007V12.0989C5.75 12.8255 6.34081 13.4163 7.06747 13.4163H15.9318C16.6585 13.4163 17.2493 12.8255 17.2493 12.0989V10.9007C17.25 10.297 16.8396 9.79239 16.284 9.63714ZM14.375 11.9788H8.625C8.3605 11.9788 8.14559 11.7639 8.14559 11.4994C8.14559 11.2349 8.3605 11.02 8.625 11.02H14.375C14.6395 11.02 14.8544 11.2349 14.8544 11.4994C14.8544 11.7639 14.6395 11.9788 14.375 11.9788Z" fill="#FC573B"/>
</g>
</svg>
