<svg width="11" height="13" viewBox="0 0 11 13" fill="none" xmlns="http://www.w3.org/2000/svg">
<g id="Layer 2">
<g id="Icon">
<path id="Vector" d="M0.611111 1.57141H10.3889C10.551 1.57141 10.7064 1.6266 10.821 1.72483C10.9356 1.82306 11 1.9563 11 2.09522V2.61903H0V2.09522C0 1.9563 0.0643847 1.82306 0.17899 1.72483C0.293596 1.6266 0.449034 1.57141 0.611111 1.57141Z" fill="#242A30"/>
<path id="Vector_2" d="M4.27762 0H6.72206C6.88414 0 7.03957 0.0551869 7.15418 0.15342C7.26879 0.251654 7.33317 0.384887 7.33317 0.52381V1.04762H3.6665V0.52381C3.6665 0.384887 3.73089 0.251654 3.84549 0.15342C3.9601 0.0551869 4.11554 0 4.27762 0Z" fill="#242A30"/>
<path id="Vector_3" d="M1.22217 3.14294L1.80272 12.0765C1.81133 12.2104 1.87949 12.3363 1.99318 12.4284C2.10686 12.5205 2.25742 12.5717 2.41383 12.5715H8.58911C8.74553 12.5717 8.89608 12.5205 9.00977 12.4284C9.12346 12.3363 9.19162 12.2104 9.20022 12.0765L9.77772 3.14294H1.22217ZM3.97217 10.7382C3.97217 10.8771 3.90778 11.0103 3.79318 11.1086C3.67857 11.2068 3.52313 11.262 3.36106 11.262C3.19898 11.262 3.04354 11.2068 2.92894 11.1086C2.81433 11.0103 2.74995 10.8771 2.74995 10.7382V4.97628C2.74995 4.83735 2.81433 4.70412 2.92894 4.60589C3.04354 4.50766 3.19898 4.45247 3.36106 4.45247C3.52313 4.45247 3.67857 4.50766 3.79318 4.60589C3.90778 4.70412 3.97217 4.83735 3.97217 4.97628V10.7382ZM6.11106 10.7382C6.11106 10.8771 6.04667 11.0103 5.93207 11.1086C5.81746 11.2068 5.66202 11.262 5.49995 11.262C5.33787 11.262 5.18243 11.2068 5.06783 11.1086C4.95322 11.0103 4.88883 10.8771 4.88883 10.7382V4.97628C4.88883 4.83735 4.95322 4.70412 5.06783 4.60589C5.18243 4.50766 5.33787 4.45247 5.49995 4.45247C5.66202 4.45247 5.81746 4.50766 5.93207 4.60589C6.04667 4.70412 6.11106 4.83735 6.11106 4.97628V10.7382ZM8.24995 10.7382C8.24995 10.8771 8.18556 11.0103 8.07096 11.1086C7.95635 11.2068 7.80091 11.262 7.63883 11.262C7.47676 11.262 7.32132 11.2068 7.20671 11.1086C7.09211 11.0103 7.02772 10.8771 7.02772 10.7382V4.97628C7.02772 4.83735 7.09211 4.70412 7.20671 4.60589C7.32132 4.50766 7.47676 4.45247 7.63883 4.45247C7.80091 4.45247 7.95635 4.50766 8.07096 4.60589C8.18556 4.70412 8.24995 4.83735 8.24995 4.97628V10.7382Z" fill="#242A30"/>
</g>
</g>
</svg>
