<svg width="11" height="13" viewBox="0 0 11 13" fill="none" xmlns="http://www.w3.org/2000/svg">
<g id="Layer 3">
<g id="Icon">
<path id="Vector" d="M0.611111 1.57141H10.3889C10.551 1.57141 10.7064 1.6266 10.821 1.72483C10.9356 1.82306 11 1.9563 11 2.09522V2.61903H0V2.09522C0 1.9563 0.0643847 1.82306 0.17899 1.72483C0.293596 1.6266 0.449034 1.57141 0.611111 1.57141Z" fill="#556372"/>
<path id="Vector_2" d="M4.27713 0H6.72157C6.88365 0 7.03909 0.0551869 7.15369 0.15342C7.2683 0.251654 7.33268 0.384887 7.33268 0.52381V1.04762H3.66602V0.52381C3.66602 0.384887 3.7304 0.251654 3.84501 0.15342C3.95961 0.0551869 4.11505 0 4.27713 0Z" fill="#556372"/>
<path id="Vector_3" d="M1.22266 3.14282L1.80321 12.0764C1.81181 12.2103 1.87998 12.3362 1.99366 12.4283C2.10735 12.5204 2.25791 12.5716 2.41432 12.5714H8.5896C8.74602 12.5716 8.89657 12.5204 9.01026 12.4283C9.12395 12.3362 9.19211 12.2103 9.20071 12.0764L9.77821 3.14282H1.22266ZM3.97266 10.7381C3.97266 10.877 3.90827 11.0102 3.79367 11.1084C3.67906 11.2067 3.52362 11.2619 3.36155 11.2619C3.19947 11.2619 3.04403 11.2067 2.92942 11.1084C2.81482 11.0102 2.75043 10.877 2.75043 10.7381V4.97616C2.75043 4.83723 2.81482 4.704 2.92942 4.60577C3.04403 4.50753 3.19947 4.45235 3.36155 4.45235C3.52362 4.45235 3.67906 4.50753 3.79367 4.60577C3.90827 4.704 3.97266 4.83723 3.97266 4.97616V10.7381ZM6.11155 10.7381C6.11155 10.877 6.04716 11.0102 5.93256 11.1084C5.81795 11.2067 5.66251 11.2619 5.50043 11.2619C5.33836 11.2619 5.18292 11.2067 5.06831 11.1084C4.95371 11.0102 4.88932 10.877 4.88932 10.7381V4.97616C4.88932 4.83723 4.95371 4.704 5.06831 4.60577C5.18292 4.50753 5.33836 4.45235 5.50043 4.45235C5.66251 4.45235 5.81795 4.50753 5.93256 4.60577C6.04716 4.704 6.11155 4.83723 6.11155 4.97616V10.7381ZM8.25043 10.7381C8.25043 10.877 8.18605 11.0102 8.07144 11.1084C7.95684 11.2067 7.8014 11.2619 7.63932 11.2619C7.47725 11.2619 7.32181 11.2067 7.2072 11.1084C7.0926 11.0102 7.02821 10.877 7.02821 10.7381V4.97616C7.02821 4.83723 7.0926 4.704 7.2072 4.60577C7.32181 4.50753 7.47725 4.45235 7.63932 4.45235C7.8014 4.45235 7.95684 4.50753 8.07144 4.60577C8.18605 4.704 8.25043 4.83723 8.25043 4.97616V10.7381Z" fill="#556372"/>
</g>
</g>
</svg>
