<svg width="20" height="20" viewBox="0 0 20 20" fill="none" xmlns="http://www.w3.org/2000/svg">
<g id="Group 1457533757">
<g id="XMLID_28_">
<path id="XMLID_29_" d="M10 0C7.3276 0 4.81527 1.04018 2.92566 2.92891C-0.9752 6.82788 -0.9752 13.172 2.92554 17.071C4.81515 18.9598 7.3276 20 10 20C12.6723 20 15.1847 18.9598 17.0744 17.071C20.9752 13.172 20.9752 6.82788 17.0744 2.92891C15.1847 1.04018 12.6723 0 10 0ZM14.5019 14.4997C14.3242 14.6772 14.0915 14.766 13.8587 14.766C13.626 14.766 13.3932 14.6772 13.2157 14.4997L10 11.2856L6.78438 14.4998C6.60672 14.6773 6.374 14.7661 6.14123 14.7661C5.90851 14.7661 5.67568 14.6773 5.4982 14.4998C5.14294 14.1448 5.14294 13.5692 5.4982 13.2141L8.71377 10L5.49814 6.78588C5.14288 6.43091 5.14288 5.85527 5.49814 5.50024C5.85328 5.14527 6.42918 5.14527 6.78438 5.50024L10 8.71436L13.2155 5.50024C13.5707 5.14527 14.1466 5.14527 14.5018 5.50024C14.857 5.85521 14.857 6.43085 14.5018 6.78588L11.2862 10L14.5019 13.2141C14.8571 13.5691 14.8571 14.1447 14.5019 14.4997Z" fill="#E4E5E6"/>
</g>
</g>
</svg>
