<svg width="17" height="17" viewBox="0 0 17 17" fill="none" xmlns="http://www.w3.org/2000/svg">
<g id="Group 1457534235">
<path id="Ellipse 60" d="M17 8.5C17 13.1944 13.1944 17 8.5 17C3.80558 17 0 13.1944 0 8.5C0 3.80558 3.80558 0 8.5 0C13.1944 0 17 3.80558 17 8.5Z" fill="#2F75F1"/>
<path id="Vector" d="M7.64402 12.2905C7.52283 12.2909 7.40275 12.2673 7.29079 12.2209C7.17882 12.1744 7.0772 12.1062 6.99184 12.0202L4.53162 9.55999C4.44351 9.4749 4.37324 9.37311 4.32489 9.26056C4.27655 9.14802 4.2511 9.02697 4.25003 8.90449C4.24897 8.782 4.27231 8.66053 4.31869 8.54716C4.36508 8.43379 4.43357 8.3308 4.52018 8.24419C4.6068 8.15757 4.70979 8.08908 4.82316 8.0427C4.93653 7.99631 5.058 7.97297 5.18048 7.97404C5.30297 7.9751 5.42401 8.00055 5.53656 8.04889C5.6491 8.09724 5.75089 8.16752 5.83599 8.25562L7.64402 10.0627L11.9114 5.7954C12.0845 5.62243 12.3192 5.5253 12.5639 5.52539C12.8086 5.52548 13.0432 5.62277 13.2162 5.79586C13.3892 5.96895 13.4863 6.20367 13.4862 6.44837C13.4861 6.69307 13.3888 6.92772 13.2157 7.10069L8.29621 12.0202C8.21084 12.1062 8.10922 12.1744 7.99726 12.2209C7.8853 12.2673 7.76522 12.2909 7.64402 12.2905Z" fill="white"/>
</g>
</svg>
