<svg width="47" height="47" viewBox="0 0 47 47" fill="none" xmlns="http://www.w3.org/2000/svg">
<g id="Group 1457533756">
<path id="Vector" fill-rule="evenodd" clip-rule="evenodd" d="M25.4583 13.7083C25.4583 12.6267 24.5816 11.75 23.5 11.75C22.4184 11.75 21.5417 12.6267 21.5417 13.7083V21.5417H13.7083C12.6267 21.5417 11.75 22.4184 11.75 23.5C11.75 24.5816 12.6267 25.4583 13.7083 25.4583H21.5417V33.2917C21.5417 34.3733 22.4184 35.25 23.5 35.25C24.5816 35.25 25.4583 34.3733 25.4583 33.2917V25.4583H33.2917C34.3733 25.4583 35.25 24.5816 35.25 23.5C35.25 22.4184 34.3733 21.5417 33.2917 21.5417H25.4583V13.7083Z" fill="#8D96A1"/>
<path id="Vector_2" fill-rule="evenodd" clip-rule="evenodd" d="M23.5 3.91667C12.6845 3.91667 3.91667 12.6845 3.91667 23.5C3.91667 34.3155 12.6845 43.0833 23.5 43.0833C34.3155 43.0833 43.0833 34.3155 43.0833 23.5C43.0833 12.6845 34.3155 3.91667 23.5 3.91667ZM0 23.5C0 10.5213 10.5213 0 23.5 0C36.4787 0 47 10.5213 47 23.5C47 36.4787 36.4787 47 23.5 47C10.5213 47 0 36.4787 0 23.5Z" fill="#8D96A1"/>
</g>
</svg>
