<svg xmlns="http://www.w3.org/2000/svg" width="16" height="14" viewBox="0 0 16 14">
  <path id="패스_41" data-name="패스 41" d="M15,6h-.333V5.333A3.337,3.337,0,0,0,11.333,2H8.667V.667a.667.667,0,0,0-1.333,0V2H4.667A3.337,3.337,0,0,0,1.333,5.333V6H1A1,1,0,0,0,0,7V9a1,1,0,0,0,1,1h.333v.667A3.337,3.337,0,0,0,4.667,14h6.667a3.337,3.337,0,0,0,3.333-3.333V10H15a1,1,0,0,0,1-1V7A1,1,0,0,0,15,6Zm-1.667,4.667a2,2,0,0,1-2,2H4.667a2,2,0,0,1-2-2V5.333a2,2,0,0,1,2-2h6.667a2,2,0,0,1,2,2ZM6.667,6.333a1,1,0,1,1-1-1A1,1,0,0,1,6.667,6.333Zm3.667,1a1,1,0,1,1,1-1A1,1,0,0,1,10.333,7.333ZM6,10a.666.666,0,0,1-.667.667H4.667a.667.667,0,0,1,0-1.333h.667A.666.666,0,0,1,6,10Zm3.333,0a.666.666,0,0,1-.667.667H7.333a.667.667,0,0,1,0-1.333H8.667A.666.666,0,0,1,9.333,10ZM12,10a.666.666,0,0,1-.667.667h-.667a.667.667,0,1,1,0-1.333h.667A.666.666,0,0,1,12,10Z" fill="#7e7e7e"/>
</svg>
