<svg xmlns="http://www.w3.org/2000/svg" width="11.499" height="11.229" viewBox="0 0 11.499 11.229">
  <g id="그룹_11" data-name="그룹 11" transform="translate(-921.959 -937)">
    <path id="패스_23" data-name="패스 23" d="M5.3,8.255a3.831,3.831,0,0,1,5.989-3.167V2.625A1.319,1.319,0,0,0,9.974,1.308H5.69L4.838.455a.359.359,0,0,0-.254-.1H2.067A1.318,1.318,0,0,0,.75,1.667V7.656A1.319,1.319,0,0,0,2.067,8.974h3.3A3.878,3.878,0,0,1,5.3,8.255Z" transform="translate(921.209 936.65)" fill="#556372"/>
    <path id="패스_24" data-name="패스 24" d="M3.136.141A3.114,3.114,0,1,0,6.25,3.255,3.118,3.118,0,0,0,3.136.141ZM4.193,4.313a.479.479,0,0,1-.677,0L2.8,3.594a.477.477,0,0,1-.141-.339v-1.2a.479.479,0,0,1,.959,0v1l.579.579A.48.48,0,0,1,4.193,4.313Z" transform="translate(927.208 941.859)" fill="#8d96a1"/>
  </g>
</svg>
