<svg xmlns="http://www.w3.org/2000/svg" width="20" height="16" viewBox="0 0 20 16">
  <path id="패스_5" data-name="패스 5" d="M16.42,0H3.48a3.4,3.4,0,0,0-1.8.512A3.643,3.643,0,0,0,0,3.581V12.44A3.563,3.563,0,0,0,3.48,16H16.52A3.563,3.563,0,0,0,20,12.44V3.581A3.667,3.667,0,0,0,16.42,0ZM3.48,2.046H16.62L11.14,6.834a1.642,1.642,0,0,1-2.28,0L3.28,2.046ZM17.92,12.522a1.556,1.556,0,0,1-1.5,1.535H3.48a1.556,1.556,0,0,1-1.5-1.535V3.581L7.56,8.368a3.716,3.716,0,0,0,2.38.921,3.676,3.676,0,0,0,2.38-.921L17.9,3.581v8.941Z" fill="#f44712"/>
</svg>
