<svg width="18" height="16" viewBox="0 0 18 16" fill="none" xmlns="http://www.w3.org/2000/svg">
<g id="Group 1457533717">
<path id="Vector" d="M8.71962 0C3.95054 0 0.0708008 3.58869 0.0708008 8C0.0708008 12.4113 3.95054 16 8.71962 16C13.4887 16 17.3684 12.4113 17.3684 8C17.3684 3.58866 13.4887 0 8.71962 0ZM8.71962 14.4C4.90451 14.4 1.80057 11.5289 1.80057 8C1.80057 4.47109 4.90451 1.6 8.71962 1.6C12.5347 1.6 15.6387 4.47109 15.6387 8C15.6387 11.5289 12.5347 14.4 8.71962 14.4ZM9.58451 4.8C9.58451 5.24178 9.1973 5.6 8.71962 5.6C8.24195 5.6 7.85474 5.24181 7.85474 4.8C7.85474 4.35816 8.24195 4 8.71962 4C9.1973 4 9.58451 4.35816 9.58451 4.8ZM9.58451 7.2V11.2C9.58451 11.6418 9.19727 12 8.71962 12C8.24201 12 7.85474 11.6418 7.85474 11.2V7.2C7.85474 6.75822 8.24201 6.4 8.71962 6.4C9.19727 6.4 9.58451 6.75819 9.58451 7.2Z" fill="#828282"/>
</g>
</svg>
