<svg width="14" height="14" viewBox="0 0 14 14" fill="none" xmlns="http://www.w3.org/2000/svg">
<g id="Group 1457533922">
<path id="Vector" d="M10.8731 0.520338L3.71632 7.68744C3.44298 7.95971 3.22628 8.28356 3.07876 8.64026C2.93125 8.99696 2.85586 9.37943 2.85695 9.76551V10.555C2.85695 10.7109 2.91879 10.8604 3.02887 10.9707C3.13896 11.0809 3.28827 11.1428 3.44395 11.1428H4.23229C4.61782 11.1439 4.99973 11.0684 5.35591 10.9207C5.7121 10.773 6.03548 10.556 6.30735 10.2822L13.4641 3.11512C13.8071 2.77074 13.9998 2.30416 13.9998 1.81773C13.9998 1.3313 13.8071 0.86472 13.4641 0.520338C13.1152 0.186375 12.6512 0 12.1686 0C11.686 0 11.2219 0.186375 10.8731 0.520338ZM12.6341 2.2839L5.47733 9.451C5.14633 9.78046 4.69897 9.96591 4.23229 9.96714H4.03095V9.76551C4.03218 9.29816 4.21737 8.85014 4.54634 8.51867L11.7031 1.35156C11.8285 1.23161 11.9952 1.16468 12.1686 1.16468C12.342 1.16468 12.5087 1.23161 12.6341 1.35156C12.7573 1.47531 12.8265 1.64296 12.8265 1.81773C12.8265 1.9925 12.7573 2.16015 12.6341 2.2839Z" fill="#242A30"/>
<path id="Vector_2" d="M13.4167 5.23775C13.2619 5.23775 13.1136 5.2992 13.0042 5.4086C12.8948 5.518 12.8333 5.66637 12.8333 5.82108V8.74999H10.5C10.0359 8.74999 9.59074 8.93437 9.26256 9.26256C8.93437 9.59074 8.74999 10.0359 8.74999 10.5V12.8333H2.91666C2.45254 12.8333 2.00742 12.6489 1.67923 12.3208C1.35104 11.9926 1.16667 11.5475 1.16667 11.0833V2.91666C1.16667 2.45254 1.35104 2.00742 1.67923 1.67923C2.00742 1.35104 2.45254 1.16667 2.91666 1.16667H8.19116C8.34587 1.16667 8.49424 1.10521 8.60364 0.995811C8.71304 0.886415 8.77449 0.738042 8.77449 0.583333C8.77449 0.428623 8.71304 0.28025 8.60364 0.170854C8.49424 0.0614581 8.34587 0 8.19116 0L2.91666 0C2.1434 0.000926249 1.40207 0.308514 0.855294 0.855294C0.308514 1.40207 0.00092625 2.1434 0 2.91666L0 11.0833C0.00092625 11.8566 0.308514 12.5979 0.855294 13.1447C1.40207 13.6915 2.1434 13.9991 2.91666 14H9.53341C9.91661 14.0011 10.2962 13.9262 10.6503 13.7796C11.0043 13.633 11.3258 13.4176 11.5961 13.146L13.1454 11.5955C13.4171 11.3253 13.6325 11.004 13.7792 10.65C13.9259 10.2961 14.0009 9.91655 14 9.53341V5.82108C14 5.66637 13.9385 5.518 13.8291 5.4086C13.7197 5.2992 13.5714 5.23775 13.4167 5.23775ZM10.7712 12.3212C10.5368 12.5551 10.2402 12.717 9.91666 12.7878V10.5C9.91666 10.3453 9.97812 10.1969 10.0875 10.0875C10.1969 9.97812 10.3453 9.91666 10.5 9.91666H12.7896C12.7174 10.2395 12.5557 10.5355 12.3229 10.7707L10.7712 12.3212Z" fill="#242A30"/>
</g>
</svg>
