<svg width="18" height="18" viewBox="0 0 18 18" fill="none" xmlns="http://www.w3.org/2000/svg">
<g id="Group">
<path id="Vector" fill-rule="evenodd" clip-rule="evenodd" d="M9.75 5.25C9.75 4.83578 9.41423 4.5 9 4.5C8.58577 4.5 8.25 4.83578 8.25 5.25V8.25H5.25C4.83578 8.25 4.5 8.58577 4.5 9C4.5 9.41423 4.83578 9.75 5.25 9.75H8.25V12.75C8.25 13.1642 8.58577 13.5 9 13.5C9.41423 13.5 9.75 13.1642 9.75 12.75V9.75H12.75C13.1642 9.75 13.5 9.41423 13.5 9C13.5 8.58577 13.1642 8.25 12.75 8.25H9.75V5.25Z" fill="white"/>
<path id="Vector_2" fill-rule="evenodd" clip-rule="evenodd" d="M9 1.5C4.8579 1.5 1.5 4.8579 1.5 9C1.5 13.1421 4.8579 16.5 9 16.5C13.1421 16.5 16.5 13.1421 16.5 9C16.5 4.8579 13.1421 1.5 9 1.5ZM0 9C0 4.02944 4.02944 0 9 0C13.9705 0 18 4.02944 18 9C18 13.9705 13.9705 18 9 18C4.02944 18 0 13.9705 0 9Z" fill="white"/>
</g>
</svg>
