<svg xmlns="http://www.w3.org/2000/svg" width="59.996" height="60.001" viewBox="0 0 59.996 60.001">
  <g id="그룹_8" data-name="그룹 8" transform="translate(-906 -547.499)">
    <g id="그룹_7" data-name="그룹 7">
      <path id="패스_11" data-name="패스 11" d="M24.027,25C13.437,25,7.745,17.724,3.166,9.86,3,9.549,1.947,7.562,1.474,6.41a28.034,28.034,0,0,1-1.1-3.229A2.5,2.5,0,1,1,5.187,1.824a22.783,22.783,0,0,0,.908,2.662C6.515,5.5,7.542,7.43,7.542,7.43,11.915,14.941,16.418,20,24.031,20c7.47,0,11.79-4.747,16.339-12.4.3-.54,1.241-2.261,1.6-3.113a22.844,22.844,0,0,0,.9-2.662,2.5,2.5,0,1,1,4.815,1.35,28.033,28.033,0,0,1-1.106,3.24C46.047,7.685,44.836,9.853,44.7,10.1,40.081,17.867,34.411,25,24.027,25Z" transform="translate(911.97 582.497)" fill="#fd907e"/>
      <path id="패스_12" data-name="패스 12" d="M8,6.99a12.373,12.373,0,0,1-6.293-1.6A2.5,2.5,0,0,1,4.293,1.114a8.137,8.137,0,0,0,7.418,0,2.5,2.5,0,0,1,2.584,4.279A12.373,12.373,0,0,1,8,6.99Z" transform="translate(927.998 590.01)" fill="#fd907e"/>
    </g>
    <path id="패스_10" data-name="패스 10" d="M54.96,20.283a2.545,2.545,0,0,0,.06-.413C54.248,6.4,41.9-.357,29.959.015,20.479.255,17.28,3.952,16.2,6.468,11.8,7.286,5.595,10.724,5.029,19.86a2.537,2.537,0,0,0,.056.412A6.852,6.852,0,0,0,0,26.876v6.251A6.88,6.88,0,0,0,6.874,40H53.123A6.88,6.88,0,0,0,60,33.127V26.876A6.854,6.854,0,0,0,54.96,20.283ZM45,32.5H15a2.5,2.5,0,0,1,0-5H45a2.5,2.5,0,1,1,0,5Z" transform="translate(906 547.499)" fill="#fc573b"/>
  </g>
</svg>
