<svg xmlns="http://www.w3.org/2000/svg" xmlns:xlink="http://www.w3.org/1999/xlink" width="18" height="18" viewBox="0 0 18 18">
  <defs>
    <clipPath id="clip-path">
      <rect id="사각형_5" data-name="사각형 5" width="18" height="18" transform="translate(897 610)" fill="#fff" stroke="#707070" stroke-width="1"/>
    </clipPath>
  </defs>
  <g id="마스크_그룹_1" data-name="마스크 그룹 1" transform="translate(-897 -610)" opacity="0.5" clip-path="url(#clip-path)">
    <g id="그룹_5" data-name="그룹 5" transform="translate(895.636 608.6)">
      <path id="패스_6" data-name="패스 6" d="M2,10.44A9.664,9.664,0,0,1,10.326,5.5a9.664,9.664,0,0,1,8.326,4.94,9.664,9.664,0,0,1-8.326,4.94A9.664,9.664,0,0,1,2,10.44Z" transform="translate(0 0)" fill="none" stroke="#000" stroke-linecap="round" stroke-linejoin="round" stroke-width="1.2"/>
      <path id="패스_7" data-name="패스 7" d="M11.593,14.85A2.676,2.676,0,1,0,9,12.175,2.635,2.635,0,0,0,11.593,14.85Z" transform="translate(-1.267 -1.735)" fill="none" stroke="#000" stroke-linecap="round" stroke-linejoin="round" stroke-width="1.2"/>
    </g>
  </g>
</svg>
