<svg width="13" height="14" viewBox="0 0 13 14" fill="none" xmlns="http://www.w3.org/2000/svg">
<g id="Layer 2">
<g id="Icon">
<path id="Vector" d="M0.680556 1.75H11.5694C11.7499 1.75 11.923 1.81146 12.0507 1.92085C12.1783 2.03025 12.25 2.17862 12.25 2.33333V2.91667H0V2.33333C0 2.17862 0.0717012 2.03025 0.19933 1.92085C0.326959 1.81146 0.500061 1.75 0.680556 1.75Z" fill="#EB5757"/>
<path id="Vector_2" d="M4.76356 0H7.48579C7.66628 0 7.83938 0.0614582 7.96701 0.170854C8.09464 0.280251 8.16634 0.428624 8.16634 0.583333V1.16667H4.08301V0.583333C4.08301 0.428624 4.15471 0.280251 4.28234 0.170854C4.40997 0.0614582 4.58307 0 4.76356 0Z" fill="#EB5757"/>
<path id="Vector_3" d="M1.36084 3.50012L2.00737 13.4489C2.01695 13.598 2.09286 13.7382 2.21946 13.8408C2.34607 13.9433 2.51373 14.0003 2.68792 14.0001H9.56494C9.73913 14.0003 9.90679 13.9433 10.0334 13.8408C10.16 13.7382 10.2359 13.598 10.2455 13.4489L10.8886 3.50012H1.36084ZM4.42334 11.9585C4.42334 12.1132 4.35164 12.2615 4.22401 12.3709C4.09638 12.4803 3.92328 12.5418 3.74278 12.5418C3.56229 12.5418 3.38919 12.4803 3.26156 12.3709C3.13393 12.2615 3.06223 12.1132 3.06223 11.9585V5.54179C3.06223 5.38708 3.13393 5.23871 3.26156 5.12931C3.38919 5.01991 3.56229 4.95846 3.74278 4.95846C3.92328 4.95846 4.09638 5.01991 4.22401 5.12931C4.35164 5.23871 4.42334 5.38708 4.42334 5.54179V11.9585ZM6.80528 11.9585C6.80528 12.1132 6.73358 12.2615 6.60595 12.3709C6.47832 12.4803 6.30522 12.5418 6.12473 12.5418C5.94423 12.5418 5.77113 12.4803 5.6435 12.3709C5.51587 12.2615 5.44417 12.1132 5.44417 11.9585V5.54179C5.44417 5.38708 5.51587 5.23871 5.6435 5.12931C5.77113 5.01991 5.94423 4.95846 6.12473 4.95846C6.30522 4.95846 6.47832 5.01991 6.60595 5.12931C6.73358 5.23871 6.80528 5.38708 6.80528 5.54179V11.9585ZM9.18723 11.9585C9.18723 12.1132 9.11553 12.2615 8.9879 12.3709C8.86027 12.4803 8.68717 12.5418 8.50667 12.5418C8.32618 12.5418 8.15308 12.4803 8.02545 12.3709C7.89782 12.2615 7.82612 12.1132 7.82612 11.9585V5.54179C7.82612 5.38708 7.89782 5.23871 8.02545 5.12931C8.15308 5.01991 8.32618 4.95846 8.50667 4.95846C8.68717 4.95846 8.86027 5.01991 8.9879 5.12931C9.11553 5.23871 9.18723 5.38708 9.18723 5.54179V11.9585Z" fill="#EB5757"/>
</g>
</g>
</svg>
