<svg xmlns="http://www.w3.org/2000/svg" width="11.499" height="11.593" viewBox="0 0 11.499 11.593">
  <g id="그룹_8" data-name="그룹 8" transform="translate(-921 -919)">
    <path id="패스_21" data-name="패스 21" d="M1.5,1.331A2.372,2.372,0,0,1,.294,1.025.479.479,0,0,1,.789.2,1.56,1.56,0,0,0,2.211.2a.479.479,0,0,1,.5.82A2.372,2.372,0,0,1,1.5,1.331Z" transform="translate(925.052 927.267)" fill="#93b4ef"/>
    <path id="패스_22" data-name="패스 22" d="M5.505,5.25c-2.03,0-3.121-1.4-4-2.9-.032-.06-.234-.441-.324-.661a5.372,5.372,0,0,1-.211-.619.479.479,0,1,1,.923-.26,4.368,4.368,0,0,0,.174.51c.081.194.277.564.277.564.838,1.44,1.7,2.409,3.16,2.409,1.432,0,2.26-.91,3.132-2.377.057-.1.238-.433.306-.6a4.376,4.376,0,0,0,.173-.51.479.479,0,1,1,.923.259,5.365,5.365,0,0,1-.212.621c-.1.244-.334.659-.361.706C8.582,3.882,7.5,5.25,5.505,5.25Z" transform="translate(921.047 925.343)" fill="#93b4ef"/>
    <path id="패스_20" data-name="패스 20" d="M11.284,4.637a.489.489,0,0,0,.011-.079C11.147,1.976,8.781.681,6.492.752,4.675.8,4.062,1.507,3.856,1.989A2.594,2.594,0,0,0,1.714,4.556a.487.487,0,0,0,.011.079A1.313,1.313,0,0,0,.75,5.9V7.1A1.319,1.319,0,0,0,2.067,8.416h8.864A1.319,1.319,0,0,0,12.249,7.1V5.9A1.314,1.314,0,0,0,11.284,4.637ZM9.375,6.979H3.625a.479.479,0,1,1,0-.959h5.75a.479.479,0,1,1,0,.959Z" transform="translate(920.25 918.25)" fill="#2f75f1"/>
  </g>
</svg>
