<svg width="15" height="15" viewBox="0 0 15 15" fill="none" xmlns="http://www.w3.org/2000/svg">
<g id="Icon">
<path id="Vector" fill-rule="evenodd" clip-rule="evenodd" d="M12.8625 7.69177C12.8625 10.7577 10.373 13.246 7.30823 13.246C4.24228 13.246 1.75397 10.7577 1.75397 7.69177C1.75397 4.62699 4.24228 2.13752 7.30823 2.13752C9.00023 2.13752 10.5168 2.89641 11.5365 4.09262C11.851 4.46095 12.4041 4.50538 12.7724 4.19084C13.1408 3.87746 13.1852 3.32321 12.8718 2.95487C11.5306 1.38214 9.53461 0.383545 7.30823 0.383545C3.27409 0.383545 0 3.6588 0 7.69177C0 11.7259 3.27409 15 7.30823 15C11.3412 15 14.6165 11.7259 14.6165 7.69177C14.6165 7.20767 14.2236 6.81478 13.7395 6.81478C13.2554 6.81478 12.8625 7.20767 12.8625 7.69177Z" fill="#556372"/>
<path id="Vector_2" fill-rule="evenodd" clip-rule="evenodd" d="M11.6929 0.876987V3.30683H9.26187C8.77778 3.30683 8.38489 3.69972 8.38489 4.18381C8.38489 4.66791 8.77778 5.0608 9.26187 5.0608H12.5699C13.054 5.0608 13.4469 4.66791 13.4469 4.18381V0.876987C13.4469 0.39289 13.054 0 12.5699 0C12.0858 0 11.6929 0.39289 11.6929 0.876987Z" fill="#556372"/>
</g>
</svg>
