<svg width="15" height="15" viewBox="0 0 15 15" fill="none" xmlns="http://www.w3.org/2000/svg">
<g id="Group 1457533733">
<path id="Vector" d="M7.5 0C3.35801 0 0 3.35801 0 7.5C0 11.642 3.35801 15 7.5 15C11.642 15 15 11.642 15 7.5C15 3.35801 11.642 0 7.5 0ZM11.1155 8.73047L8.81279 11.0332C8.65258 11.1934 8.43527 11.2834 8.20869 11.2834C7.98211 11.2834 7.76481 11.1934 7.60459 11.0332C7.44437 10.873 7.35436 10.6557 7.35436 10.4291C7.35436 10.2025 7.44437 9.98522 7.60459 9.825L8.94844 8.48115H3.53174C3.30535 8.48107 3.08825 8.3911 2.92817 8.23101C2.76808 8.07093 2.67811 7.85383 2.67803 7.62744V7.62685C2.67817 7.40033 2.76823 7.18312 2.92841 7.02294C3.08859 6.86276 3.3058 6.77271 3.53232 6.77256H9.15732L7.55947 5.175C7.39925 5.01478 7.30925 4.79748 7.30925 4.5709C7.30925 4.34432 7.39925 4.12701 7.55947 3.9668C7.71969 3.80658 7.93699 3.71657 8.16357 3.71657C8.39016 3.71657 8.60746 3.80658 8.76768 3.9668L12.3234 7.52256L11.1155 8.73047Z" fill="#8D96A1"/>
</g>
</svg>
