<svg xmlns="http://www.w3.org/2000/svg" width="11.5" height="11.5" viewBox="0 0 11.5 11.5">
  <path id="패스_15" data-name="패스 15" d="M12.068,5.948,6.749.85a.36.36,0,0,0-.5,0L.927,5.954A.609.609,0,0,0,.75,6.38a.6.6,0,0,0,.6.6h.839v4.553a.719.719,0,0,0,.719.719H4.942a.36.36,0,0,0,.359-.359V8.776a.12.12,0,0,1,.12-.12H7.578a.12.12,0,0,1,.12.12v3.114a.36.36,0,0,0,.359.359h2.036a.719.719,0,0,0,.719-.719V6.979h.839a.6.6,0,0,0,.6-.6A.615.615,0,0,0,12.068,5.948Z" transform="translate(-0.75 -0.75)" fill="#556372"/>
</svg>
