<svg width="14" height="14" viewBox="0 0 14 14" fill="none" xmlns="http://www.w3.org/2000/svg">
<g id="Group 1457533749">
<path id="Vector" d="M13.0689 8.561C13.0683 8.56042 13.0671 8.55983 13.0665 8.55867L12.1694 7.73442C12.1997 7.48592 12.2155 7.23975 12.2155 7C12.2155 6.76025 12.1997 6.51408 12.1694 6.26558L13.0689 5.439C13.3658 5.15958 13.4335 4.71625 13.2322 4.35692L12.2423 2.64542C12.044 2.2925 11.6129 2.1245 11.218 2.24758L10.0536 2.61508C9.65871 2.30767 9.23287 2.06033 8.78487 1.87833L8.51595 0.683083C8.42787 0.287583 8.07029 0 7.66545 0H5.68212C5.27729 0 4.9197 0.287583 4.83162 0.6825L4.5627 1.87833C4.1147 2.06033 3.68887 2.30767 3.29395 2.61508L2.12845 2.24758C1.73587 2.12567 1.30362 2.29192 1.10762 2.64192L0.113621 4.36042C-0.0858794 4.71625 -0.0182127 5.15958 0.281621 5.44133L1.17879 6.26558C1.14787 6.51408 1.13212 6.76025 1.13212 7C1.13212 7.23975 1.14787 7.48592 1.1782 7.73442L0.278704 8.561C-0.0182128 8.84042 -0.0858794 9.28375 0.115371 9.6425L1.10529 11.354C1.30362 11.7075 1.73412 11.8749 2.12962 11.7524L3.29395 11.3849C3.68887 11.6923 4.1147 11.9397 4.5627 12.1217L4.83162 13.3163C4.9197 13.7124 5.27729 14 5.68212 14H7.66545C8.07029 14 8.42787 13.7124 8.51595 13.3175L8.78487 12.1217C9.23287 11.9397 9.65871 11.6929 10.0536 11.3849L11.2191 11.7524C11.6129 11.8755 12.044 11.7075 12.2405 11.3575L13.2345 9.639C13.4335 9.28375 13.3658 8.84042 13.0689 8.561ZM6.67379 9.91667C5.06554 9.91667 3.75712 8.60825 3.75712 7C3.75712 5.39175 5.06554 4.08333 6.67379 4.08333C8.28204 4.08333 9.59046 5.39175 9.59046 7C9.59046 8.60825 8.28204 9.91667 6.67379 9.91667Z" fill="#242A30"/>
</g>
</svg>
