<svg xmlns="http://www.w3.org/2000/svg" width="12" height="12" viewBox="0 0 12 12">
  <path id="패스_27" data-name="패스 27" d="M16.625,6H7.375A1.376,1.376,0,0,0,6,7.375v6.75A1.376,1.376,0,0,0,7.375,15.5H8v2.125a.376.376,0,0,0,.232.347A.371.371,0,0,0,8.375,18a.378.378,0,0,0,.265-.11l2.39-2.39h5.595A1.376,1.376,0,0,0,18,14.125V7.376A1.377,1.377,0,0,0,16.625,6ZM15,12.5H14a.5.5,0,0,1-.429-.243L12.54,10.538l-1.093,2.186a.5.5,0,0,1-.416.275H11a.5.5,0,0,1-.416-.223L9.732,11.5H9a.5.5,0,1,1,0-1h1a.5.5,0,0,1,.416.223l.522.783,1.114-2.23a.5.5,0,0,1,.876-.034L14.283,11.5H15a.5.5,0,1,1,0,1Z" transform="translate(-6 -6)" fill="#2f75f1"/>
</svg>
