<svg width="26" height="23" viewBox="0 0 26 23" fill="none" xmlns="http://www.w3.org/2000/svg">
<g id="Group 1457533702">
<path id="Vector" d="M0.359863 4.6C0.359863 2.05949 2.58638 0 5.33294 0H20.2522C22.9987 0 25.2252 2.05949 25.2252 4.6V18.4C25.2252 20.9405 22.9987 23 20.2522 23H5.33294C2.58638 23 0.359863 20.9405 0.359863 18.4V4.6Z" fill="#E3F8FB"/>
<path id="Vector_2" fill-rule="evenodd" clip-rule="evenodd" d="M7.33885 8.47368C7.82064 8.47368 8.21125 8.81856 8.21125 9.24396V13.3525C8.21125 13.7779 7.82064 14.1228 7.33885 14.1228C6.85705 14.1228 6.46631 13.7779 6.46631 13.3525V9.24396C6.46631 8.81856 6.85705 8.47368 7.33885 8.47368Z" fill="#8DE2EC"/>
<path id="Vector_3" fill-rule="evenodd" clip-rule="evenodd" d="M14.3197 8.47368C14.8015 8.47368 15.1922 8.81856 15.1922 9.24396V13.3525C15.1922 13.7779 14.8015 14.1228 14.3197 14.1228C13.8379 14.1228 13.4473 13.7779 13.4473 13.3525V9.24396C13.4473 8.81856 13.8379 8.47368 14.3197 8.47368Z" fill="#8DE2EC"/>
<path id="Vector_4" fill-rule="evenodd" clip-rule="evenodd" d="M10.8304 6.45613C11.3122 6.45613 11.7029 6.79842 11.7029 7.22062V15.3757C11.7029 15.7981 11.3122 16.1403 10.8304 16.1403C10.3486 16.1403 9.95801 15.7981 9.95801 15.3757V7.22062C9.95801 6.79842 10.3486 6.45613 10.8304 6.45613Z" fill="#25C6DA"/>
<path id="Vector_5" fill-rule="evenodd" clip-rule="evenodd" d="M17.8099 8.07017C18.2917 8.07017 18.6824 8.31262 18.6824 8.61168V14.3882C18.6824 14.6874 18.2917 14.9298 17.8099 14.9298C17.3281 14.9298 16.9375 14.6874 16.9375 14.3882V8.61168C16.9375 8.31262 17.3281 8.07017 17.8099 8.07017Z" fill="#25C6DA"/>
</g>
</svg>
