<svg width="61" height="61" viewBox="0 0 61 61" fill="none" xmlns="http://www.w3.org/2000/svg">
<g id="Group 1457533776">
<g id="Group">
<path id="Vector" d="M30.5 0C13.6551 0 0 13.6551 0 30.5C0 47.3449 13.6551 61 30.5 61C47.3449 61 61 47.3449 61 30.5C61 13.6551 47.3449 0 30.5 0ZM11.1443 42.5177C10.838 42.0244 10.5488 41.5175 10.2808 40.9996C8.74552 38.0533 7.83636 34.7355 7.72818 31.2135C7.33084 18.3249 17.8194 7.6001 30.713 7.71817C34.422 7.75141 37.9182 8.67284 41.0036 10.277C41.5215 10.5463 42.0271 10.8355 42.5203 11.143C42.7442 11.282 42.7811 11.5932 42.5954 11.779L11.7815 42.5928C11.5957 42.7785 11.2845 42.7416 11.1443 42.5177ZM30.5 53.283C26.7123 53.283 23.141 52.3579 20.0004 50.723C19.4825 50.4537 18.9745 50.1645 18.4811 49.8582C18.2559 49.718 18.2191 49.4068 18.4048 49.2209L49.2209 18.4048C49.4067 18.2191 49.718 18.256 49.8582 18.4811C50.1645 18.9745 50.4536 19.4825 50.723 20.0004C52.358 23.1447 53.283 26.7123 53.283 30.5C53.283 43.0823 43.086 53.283 30.5 53.283Z" fill="#E94444"/>
<path id="Vector_2" d="M47.9452 5.47925C54.646 11.0729 58.9087 19.4886 58.9087 28.9007C58.9087 45.7457 45.2536 59.4007 28.4087 59.4007C21.9219 59.4007 15.9063 57.3746 10.9634 53.9215C16.2544 58.3416 23.0671 61 30.4999 61C47.3449 61 60.9999 47.3449 60.9999 30.5C60.9999 20.1431 55.8381 10.9916 47.9452 5.47925Z" fill="#D83131"/>
</g>
</g>
</svg>
