<svg xmlns="http://www.w3.org/2000/svg" width="157.992" height="158" viewBox="0 0 157.992 158">
  <g id="그룹_23" data-name="그룹 23" transform="translate(-1 -1)">
    <path id="패스_45" data-name="패스 45" d="M80,158.992A79,79,0,1,0,1,80,79,79,0,0,0,80,158.992Z" fill="#cbcbcb" opacity="0.4"/>
    <path id="패스_46" data-name="패스 46" d="M79.995,39.939A29.634,29.634,0,0,0,50.371,69.563c0,16.036,12.56,29.071,29.229,29.545h1.422a29.592,29.592,0,0,0-1.027-59.168Z" fill="#8d96a1"/>
    <path id="패스_47" data-name="패스 47" d="M133.541,138.066a78.983,78.983,0,0,1-107.119,0c1.9-7.188,7.031-13.745,14.535-18.8,21.566-14.377,56.64-14.377,78.048,0C126.589,124.321,131.645,130.878,133.541,138.066Z" fill="#8d96a1"/>
    <rect id="사각형_7" data-name="사각형 7" width="157" height="157" rx="78.5" transform="translate(1.5 1.5)" fill="none"/>
  </g>
</svg>
